<?xml version="1.0" encoding="UTF-8" standalone="no"?>
<svg
   xmlns:dc="http://purl.org/dc/elements/1.1/"
   xmlns:cc="http://creativecommons.org/ns#"
   xmlns:rdf="http://www.w3.org/1999/02/22-rdf-syntax-ns#"
   xmlns:svg="http://www.w3.org/2000/svg"
   xmlns="http://www.w3.org/2000/svg"
   xmlns:sodipodi="http://sodipodi.sourceforge.net/DTD/sodipodi-0.dtd"
   xmlns:inkscape="http://www.inkscape.org/namespaces/inkscape"
   viewBox="0 0 512 512"
   id="svg2"
   version="1.1"
   inkscape:version="0.91 r"
   sodipodi:docname="air-flow.svg">
  <metadata
     id="metadata12">
    <rdf:RDF>
      <cc:Work
         rdf:about="">
        <dc:format>image/svg+xml</dc:format>
        <dc:type
           rdf:resource="http://purl.org/dc/dcmitype/StillImage" />
        <dc:title></dc:title>
      </cc:Work>
    </rdf:RDF>
  </metadata>
  <defs
     id="defs10" />
  <sodipodi:namedview
     pagecolor="#ffffff"
     bordercolor="#666666"
     borderopacity="1"
     objecttolerance="10"
     gridtolerance="10"
     guidetolerance="10"
     inkscape:pageopacity="0"
     inkscape:pageshadow="2"
     inkscape:window-width="640"
     inkscape:window-height="480"
     id="namedview8"
     showgrid="false"
     inkscape:zoom="0.4609375"
     inkscape:cx="256"
     inkscape:cy="291.81251"
     inkscape:window-x="1093"
     inkscape:window-y="333"
     inkscape:window-maximized="0"
     inkscape:current-layer="svg2" />
  <g
     id="g3735"
     transform="matrix(0.90680444,0,0,1,47.847673,0)" />
  <path
     id="path3821"
     d="M 89.359014,445.23728 A 76.494607,122.7724 0 0 1 12.864407,322.46488 76.494607,122.7724 0 0 1 89.359014,199.69249 c 15.298916,-57.70303 50.486436,-98.21792 91.793536,-98.21792 52.47529,0 95.46527,65.31492 99.44299,148.06351 l 7.64946,-0.73663 a 61.195686,98.217918 0 0 1 61.19568,98.21791 61.195686,98.217918 0 0 1 -61.19568,98.21792 l -198.885986,0 M 288.245,297.91041 l -30.59785,0 0,-24.55448 a 76.494607,122.7724 0 0 0 -76.4946,-122.7724 c -38.24732,0 -69.6101,44.68915 -75.57668,102.88327 -5.04864,-2.94654 -10.556256,-4.66535 -16.216856,-4.66535 a 45.896764,73.663438 0 0 0 -45.896764,73.66343 45.896764,73.663438 0 0 0 45.896764,73.66344 l 198.885986,0 A 30.597843,49.108959 0 0 0 318.84284,347.01936 30.597843,49.108959 0 0 0 288.245,297.91041 Z"
     inkscape:connector-curvature="0" />
  <path
     d="M 385.55469 3.0175781 C 372.27129 3.0175781 360.19622 14.595855 351.38086 33.123047 C 346.6713 43.158598 346.6713 59.628511 351.38086 69.664062 C 356.09044 80.214269 363.81974 80.214269 368.5293 69.664062 C 372.8766 60.14315 378.91301 54.480469 385.55469 54.480469 A 24.15165 51.464407 0 0 1 409.70703 105.94531 A 24.15165 51.464407 0 0 1 385.55469 157.41016 L 292.47461 157.41016 C 299.94141 173.80591 305.29369 191.25035 308.69336 208.875 L 385.55469 208.875 A 48.303301 102.92881 0 0 0 433.85938 105.94531 A 48.303301 102.92881 0 0 0 385.55469 3.0175781 z M 470.08594 157.41016 C 460.063 157.41016 451.00533 166.1593 444.48438 180.05469 C 439.89555 190.09024 439.89555 206.30232 444.48438 216.33789 C 449.19395 226.37344 456.80216 226.37344 461.51172 216.33789 C 463.68538 211.70608 466.70471 208.875 470.08594 208.875 A 12.075826 25.732204 0 0 1 482.16211 234.60742 A 12.075826 25.732204 0 0 1 470.08594 260.33984 L 357.32812 260.33984 C 367.58337 276.01496 374.65475 293.53085 378.67383 311.80273 L 470.08594 311.80273 A 36.227475 77.196611 0 0 0 506.31445 234.60742 A 36.227475 77.196611 0 0 0 470.08594 157.41016 z M 382.15234 363.26758 C 381.09075 376.87995 378.49859 390.35242 374.41406 403.26172 C 373.27802 407.11426 371.95659 410.94961 370.45312 414.73242 L 458.00977 414.73242 A 12.075826 25.732204 0 0 1 470.08594 440.46484 A 12.075826 25.732204 0 0 1 458.00977 466.19727 C 454.62853 466.19727 451.60919 463.36622 449.43555 458.73438 C 444.72597 448.69884 437.11972 448.69885 432.41016 458.73438 C 427.82136 468.76997 427.82136 484.98199 432.41016 495.01758 C 438.93111 508.91298 447.98684 517.66016 458.00977 517.66016 A 36.227475 77.196611 0 0 0 494.23828 440.46484 A 36.227475 77.196611 0 0 0 458.00977 363.26758 L 382.15234 363.26758 z "
     id="path3832" />
</svg>
