<?xml version="1.0" encoding="UTF-8"?>
<!-- Generator: Adobe Illustrator 15.0.2, SVG Export Plug-In . SVG Version: 6.00 Build 0)  -->
<!DOCTYPE svg PUBLIC "-//W3C//DTD SVG 1.1//EN" "http://www.w3.org/Graphics/SVG/1.1/DTD/svg11.dtd">
<svg xmlns="http://www.w3.org/2000/svg" xmlns:xlink="http://www.w3.org/1999/xlink" version="1.1" id="Layer_1" x="0px" y="0px" width="512px" height="412.444px" viewBox="0 0 512 412.444" enable-background="new 0 0 512 412.444" xml:space="preserve">
<path d="M142.223,71.111C142.223,33.799,176.021,0,213.333,0h85.334c37.306,0,71.11,33.799,71.11,71.111h71.111  c39.278,0,71.111,31.84,71.111,71.111v199.11c0,39.278-31.833,71.111-71.111,71.111H71.111C31.833,412.444,0,380.611,0,341.333  v-199.11c0-39.271,31.833-71.111,71.111-71.111H142.223z M78.223,113.777c-11.785,0-21.334,12.736-21.334,28.445  c0,15.708,9.549,28.444,21.334,28.444c11.784,0,21.333-12.736,21.333-28.444C99.556,126.514,90.007,113.777,78.223,113.777z   M256,142.223c-54.986,0-99.556,44.569-99.556,99.555c0,54.986,44.569,99.556,99.556,99.556s99.556-44.569,99.556-99.556  C355.556,186.792,310.986,142.223,256,142.223z M256,177.777c35.348,0,64,28.653,64,64c0,35.348-28.652,64-64,64s-64-28.652-64-64  C192,206.431,220.652,177.777,256,177.777z" fill="#000000"/>
</svg>
