<?xml version="1.0" encoding="UTF-8"?>
<!-- Generator: Adobe Illustrator 15.0.2, SVG Export Plug-In . SVG Version: 6.00 Build 0)  -->
<!DOCTYPE svg PUBLIC "-//W3C//DTD SVG 1.1//EN" "http://www.w3.org/Graphics/SVG/1.1/DTD/svg11.dtd">
<svg xmlns="http://www.w3.org/2000/svg" xmlns:xlink="http://www.w3.org/1999/xlink" version="1.1" id="Layer_1" x="0px" y="0px" width="512px" height="460.8px" viewBox="0 0 512 460.8" enable-background="new 0 0 512 460.8" xml:space="preserve">
<path d="M256,174.081c45.25,0,81.925,36.675,81.925,81.919c0,45.25-36.675,81.925-81.925,81.925  c-45.244,0-81.919-36.675-81.919-81.925C174.081,210.756,210.756,174.081,256,174.081z" fill="#000000"/>
<path d="M179.2,0L132.35,51.2H51.2C22.913,51.2,0,74.112,0,102.4V409.6c0,28.288,22.913,51.2,51.2,51.2h409.6  c28.288,0,51.2-22.912,51.2-51.2V102.4c0-28.288-22.912-51.2-51.2-51.2H379.65L332.8,0H179.2z M256,384c-70.656,0-128-57.35-128-128  c0-70.656,57.344-128,128-128c70.65,0,128,57.344,128,128C384,326.65,326.65,384,256,384z" fill="#000000"/>
</svg>
