<?xml version="1.0" encoding="UTF-8" standalone="no"?>
<svg
   xmlns:dc="http://purl.org/dc/elements/1.1/"
   xmlns:cc="http://creativecommons.org/ns#"
   xmlns:rdf="http://www.w3.org/1999/02/22-rdf-syntax-ns#"
   xmlns:svg="http://www.w3.org/2000/svg"
   xmlns="http://www.w3.org/2000/svg"
   xmlns:sodipodi="http://sodipodi.sourceforge.net/DTD/sodipodi-0.dtd"
   xmlns:inkscape="http://www.inkscape.org/namespaces/inkscape"
   version="1.1"
   x="0px"
   y="0px"
   viewBox="0 0 100 125"
   enable-background="new 0 0 100 100"
   xml:space="preserve"
   id="svg2"
   inkscape:version="0.91 r"
   sodipodi:docname="dino.svg"><metadata
     id="metadata20"><rdf:RDF><cc:Work
         rdf:about=""><dc:format>image/svg+xml</dc:format><dc:type
           rdf:resource="http://purl.org/dc/dcmitype/StillImage" /></cc:Work></rdf:RDF></metadata><defs
     id="defs18" /><sodipodi:namedview
     pagecolor="#ffffff"
     bordercolor="#666666"
     borderopacity="1"
     objecttolerance="10"
     gridtolerance="10"
     guidetolerance="10"
     inkscape:pageopacity="0"
     inkscape:pageshadow="2"
     inkscape:window-width="640"
     inkscape:window-height="480"
     id="namedview16"
     showgrid="false"
     inkscape:zoom="2.6700352"
     inkscape:cx="36.830082"
     inkscape:cy="74.226669"
     inkscape:window-x="0"
     inkscape:window-y="0"
     inkscape:window-maximized="0"
     inkscape:current-layer="g4" /><g
     id="g4"><path
       d="M 94.5,79.3 C 88.3,78.4 74.9,75.8 66.3,68.3 55.499002,57.662749 42.437825,51.030506 34.3,50.8 c -5.028834,-0.754431 -6.471702,-2.411789 -6.54865,-6.229998 -0.2,-6.9 -1.964831,-19.138559 -10.064831,-20.338559 -0.7,-0.1 -1.3,-0.5 -1.9,-0.9 -0.4,-0.3 -1.1,-0.7 -2.3,-0.7 -2.6,0 -2,2.9 -3.9000002,3.2 -2,0.3 -1.6,2.3 -1.6,2.3 0,0 0.8,1.3 4.0000002,2 3.2,0.7 7,-0.3 8.1,7.7 C 21.186519,45.831443 15.8,54.9 20.7,61.4 c 0.4,0.6 0.8,1.1 1.3,1.6 0.2,1.5 0.7,3.5 1.7,5.7 0,0 0.2,5.6 0,10 -0.2,4.4 -1.1,8.6 -0.9,10 l 6.2,0 c 0,0 -0.2,-6 0,-8.9 0.2,-2.4 1.5,-1.4 1,-8.3 2.7,2.3 5.4,4.3 7.9,5.5 2.4,1.1 6,1.6 9.8,1.6 1.2,0 2.4,0 3.5,-0.1 0.2,1 0.5,1.9 0.7,2.5 1,2.4 2,4.4 2,4.4 l 0,2.4 c 0,0 -1.5,1 -2,2 l 6.8,0 c 0,0 1.2,-3.4 -1,-8.8 l 1.2,-3.7 c 0.7,-0.2 1.4,-0.4 1.9,-0.7 0.6,-0.3 1.2,-0.4 1.9,-0.4 4.3,0 11.9,4.4 25.7,4.8 l 0.7,0 c 1,0 2.9,-0.1 5.3,-0.5 0.8,-0.2 0.8,-1.1 0.1,-1.2 z M 13.886519,26.431443 c -0.5,0 -0.9,-0.4 -0.9,-0.9 0,-0.5 0.4,-0.9 0.9,-0.9 0.5,0 0.9,0.4 0.9,0.9 -0.1,0.5 -0.5,0.9 -0.9,0.9 z"
       id="path6"
       inkscape:connector-curvature="0"
       style="fill:#000000"
       sodipodi:nodetypes="ccccccsccsscccscccccscccccccccscsccssscs" /><path
       fill="#000000"
       d="M52.5,85.7c-0.3-0.6-1.1-2.3-1.9-4.2c-0.2-0.4-0.3-0.9-0.5-1.6c-0.8,0-1.7,0.1-2.5,0.1c0,0,0,0,0,0   c0,0.9,0,1.9,0.1,2.8c0.2,3.1,0.2,3.1,0.2,3.1s-1.3,2.2-1.5,2.9h4.4c0.4-0.7,1.1-1.3,1.6-1.7V85.7z"
       id="path8" /><path
       d="M34.5,76.7c-1-0.6-2.1-1.4-3.1-2.2c0,2.3-0.3,3.2-0.7,4.2c-0.2,0.4-0.3,0.7-0.3,1.2c-0.2,2.7,0,8.5,0,8.7   l4.1-0.2c0,0,0.4-8.3,0.1-10C34.3,78,34.4,77.4,34.5,76.7z"
       id="path10"
       fill="#000000" /></g></svg>