<?xml version="1.0" encoding="UTF-8"?>
<!-- Generator: Adobe Illustrator 15.0.2, SVG Export Plug-In . SVG Version: 6.00 Build 0)  -->
<!DOCTYPE svg PUBLIC "-//W3C//DTD SVG 1.1//EN" "http://www.w3.org/Graphics/SVG/1.1/DTD/svg11.dtd">
<svg xmlns="http://www.w3.org/2000/svg" xmlns:xlink="http://www.w3.org/1999/xlink" version="1.1" id="Layer_1" x="0px" y="0px" width="512px" height="349.091px" viewBox="0 0 512 349.091" enable-background="new 0 0 512 349.091" xml:space="preserve">
<path d="M256,0C139.637,0,40.262,72.375,0,174.546c40.262,102.17,139.637,174.545,256,174.545c116.478,0,215.738-72.375,256-174.545  C471.738,72.375,372.478,0,256,0z M256,290.909c-64.233,0-116.363-52.137-116.363-116.363c0-64.233,52.13-116.364,116.363-116.364  c64.228,0,116.363,52.131,116.363,116.364C372.363,238.772,320.228,290.909,256,290.909z M256,104.728  c-38.517,0-69.818,31.301-69.818,69.818c0,38.522,31.302,69.817,69.818,69.817c38.522,0,69.818-31.295,69.818-69.817  C325.818,136.028,294.522,104.728,256,104.728z" fill="#000000"/>
</svg>
