<?xml version="1.0" encoding="UTF-8" standalone="no"?>
<svg
   xmlns:dc="http://purl.org/dc/elements/1.1/"
   xmlns:cc="http://creativecommons.org/ns#"
   xmlns:rdf="http://www.w3.org/1999/02/22-rdf-syntax-ns#"
   xmlns:svg="http://www.w3.org/2000/svg"
   xmlns="http://www.w3.org/2000/svg"
   xmlns:sodipodi="http://sodipodi.sourceforge.net/DTD/sodipodi-0.dtd"
   xmlns:inkscape="http://www.inkscape.org/namespaces/inkscape"
   viewBox="0 0 512 512"
   id="svg2"
   version="1.1"
   inkscape:version="0.91 r"
   sodipodi:docname="fire-flow.svg">
  <metadata
     id="metadata12">
    <rdf:RDF>
      <cc:Work
         rdf:about="">
        <dc:format>image/svg+xml</dc:format>
        <dc:type
           rdf:resource="http://purl.org/dc/dcmitype/StillImage" />
        <dc:title></dc:title>
      </cc:Work>
    </rdf:RDF>
  </metadata>
  <defs
     id="defs10" />
  <sodipodi:namedview
     pagecolor="#ffffff"
     bordercolor="#666666"
     borderopacity="1"
     objecttolerance="10"
     gridtolerance="10"
     guidetolerance="10"
     inkscape:pageopacity="0"
     inkscape:pageshadow="2"
     inkscape:window-width="640"
     inkscape:window-height="480"
     id="namedview8"
     showgrid="false"
     inkscape:zoom="0.4609375"
     inkscape:cx="256"
     inkscape:cy="294.25166"
     inkscape:window-x="1093"
     inkscape:window-y="333"
     inkscape:window-maximized="0"
     inkscape:current-layer="svg2" />
  <path
     id="path3426"
     d="m 151.7683,390.29414 c -33.88033,0 -61.098802,-26.83779 -61.098802,-59.76643 0,-30.83492 19.604902,-52.53357 53.294902,-59.38576 33.69,-6.85221 68.52204,-23.03102 87.93662,-49.10747 7.42321,24.55373 11.03966,50.43983 11.03966,76.89696 0,50.24949 -40.73255,91.3627 -91.17238,91.3627 M 185.83898,41.402793 c 0,0 14.08508,50.439831 14.08508,91.362717 0,39.20983 -25.69576,70.99644 -64.90559,70.99644 -39.400168,0 -69.093043,-31.78661 -69.093043,-70.99644 l 0.571015,-7.04255 C 28.047963,171.40431 5.0169499,230.59974 5.0169499,295.12465 A 152.27118,152.27118 0 0 0 157.28813,447.39585 152.27118,152.27118 0 0 0 309.55932,295.12465 c 0,-102.78304 -49.29779,-194.14576 -123.72034,-253.721857 z"
     inkscape:connector-curvature="0" />
  <path
     d="M 388.75195 11.695312 C 375.34294 11.695313 363.1526 22.799694 354.25391 40.566406 C 349.49979 50.190037 349.49979 65.981838 354.25391 75.605469 C 359.00801 85.722627 366.81034 85.722627 371.56445 75.605469 C 375.95285 66.475333 382.04744 61.046875 388.75195 61.046875 A 24.380018 49.352008 0 0 1 413.13281 110.39844 A 24.380018 49.352008 0 0 1 388.75195 159.75 L 308.16406 159.75 C 311.768 168.37168 315.03244 177.13646 317.93164 186.02148 C 320.29782 193.6206 322.4936 201.32339 324.46875 209.10352 L 388.75195 209.10352 A 48.760036 98.704017 0 0 0 437.51172 110.39844 A 48.760036 98.704017 0 0 0 388.75195 11.695312 z M 474.08203 159.75 C 463.96433 159.75 454.82282 168.14173 448.24023 181.4668 C 443.60802 191.09043 443.60802 206.63613 448.24023 216.25977 C 452.99432 225.8834 460.67361 225.8834 465.42773 216.25977 C 467.62192 211.81808 470.66882 209.10352 474.08203 209.10352 A 12.190009 24.676003 0 0 1 486.27344 233.7793 A 12.190009 24.676003 0 0 1 474.08203 258.45508 L 333.4082 258.45508 C 335.07603 274.89071 335.31473 291.41837 333.6543 307.80664 L 474.08203 307.80664 A 36.570027 74.028012 0 0 0 510.65234 233.7793 A 36.570027 74.028012 0 0 0 474.08203 159.75 z M 322.11523 357.1582 C 315.025 375.17464 304.75754 391.87764 292.07422 406.51172 L 461.89258 406.51172 A 12.190009 24.676003 0 0 1 474.08203 431.1875 A 12.190009 24.676003 0 0 1 461.89258 455.86328 C 458.47938 455.86328 455.43248 453.14871 453.23828 448.70703 C 448.48419 439.08338 440.80293 439.08338 436.04883 448.70703 C 431.41663 458.33067 431.41663 473.87638 436.04883 483.5 C 442.63143 496.82505 451.77487 505.21484 461.89258 505.21484 A 36.570027 74.028012 0 0 0 498.46289 431.1875 A 36.570027 74.028012 0 0 0 461.89258 357.1582 L 322.11523 357.1582 z "
     id="path3437" />
</svg>
