<?xml version="1.0" encoding="UTF-8"?>
<!-- Generator: Adobe Illustrator 15.0.2, SVG Export Plug-In . SVG Version: 6.00 Build 0)  -->
<!DOCTYPE svg PUBLIC "-//W3C//DTD SVG 1.1//EN" "http://www.w3.org/Graphics/SVG/1.1/DTD/svg11.dtd">
<svg xmlns="http://www.w3.org/2000/svg" xmlns:xlink="http://www.w3.org/1999/xlink" version="1.1" id="Layer_1" x="0px" y="0px" width="512px" height="512px" viewBox="0 0 512 512" enable-background="new 0 0 512 512" xml:space="preserve">
<path d="M256,0C114.562,0,0,114.562,0,256s114.562,256,256,256s256-114.562,256-256S397.438,0,256,0z M230.4,459  C129.406,446.463,51.2,360.45,51.2,256c0-15.744,1.919-31.106,5.375-45.825L179.2,332.8V358.4c0,28.287,22.912,51.199,51.2,51.199  V459z M406.912,394.112c-6.537-20.737-25.737-35.712-48.512-35.712H332.8V281.6c0-14.074-11.524-25.6-25.6-25.6H153.6v-51.2h51.2  c14.081,0,25.601-11.519,25.601-25.6V128H281.6c28.288,0,51.2-22.912,51.2-51.2V66.175c75,30.338,128,103.812,128,189.825  C460.8,309.25,440.325,357.625,406.912,394.112z" fill="#000000"/>
</svg>
