<?xml version="1.0" encoding="UTF-8"?>
<!-- Generator: Adobe Illustrator 15.0.2, SVG Export Plug-In . SVG Version: 6.00 Build 0)  -->
<!DOCTYPE svg PUBLIC "-//W3C//DTD SVG 1.1//EN" "http://www.w3.org/Graphics/SVG/1.1/DTD/svg11.dtd">
<svg xmlns="http://www.w3.org/2000/svg" xmlns:xlink="http://www.w3.org/1999/xlink" version="1.1" id="Layer_1" x="0px" y="0px" width="512px" height="443.839px" viewBox="0 0 512 443.839" enable-background="new 0 0 512 443.839" xml:space="preserve">
<path d="M512,0c-109.582,87.676-65.755,131.51-87.683,197.265c-21.899,65.748,0,87.676-87.654,153.431  c-112.287,84.208-208.235,32.877-208.235,32.877C106.514,405.5,24.32,443.839,24.32,443.839L0,395.388  c87.676-21.927,106.514-50.182,106.514-50.182c-21.921-43.827-54.798-126.021,10.957-235.61C183.226,0,512,0,512,0z   M139.392,306.867l21.913,21.9c0,0,43.842-21.9,65.755-87.655C248.98,175.351,358.562,65.755,358.562,65.755  C314.735,87.676,227.06,175.351,205.146,241.112C183.226,306.867,139.392,306.867,139.392,306.867z" fill="#000000"/>
</svg>
