<?xml version="1.0" encoding="UTF-8"?>
<!-- Generator: Adobe Illustrator 15.0.2, SVG Export Plug-In . SVG Version: 6.00 Build 0)  -->
<!DOCTYPE svg PUBLIC "-//W3C//DTD SVG 1.1//EN" "http://www.w3.org/Graphics/SVG/1.1/DTD/svg11.dtd">
<svg xmlns="http://www.w3.org/2000/svg" xmlns:xlink="http://www.w3.org/1999/xlink" version="1.1" id="Layer_1" x="0px" y="0px" width="512px" height="512px" viewBox="0 0 512 512" enable-background="new 0 0 512 512" xml:space="preserve">
<path d="M497.777,0c-1.555,0-2.985,0.139-4.416,0.708L341.333,59.736L170.667,0L10.382,54.042C4.41,56.035,0,61.152,0,67.694  v430.083C0,505.598,6.403,512,14.222,512c1.562,0,2.986-0.139,4.41-0.708l152.035-59.028L341.333,512l160.417-53.902  c5.986-2.125,10.25-7.25,10.25-13.792V14.222C512,6.403,505.598,0,497.777,0z M341.333,455.111l-170.666-59.875V56.889  l170.666,59.875V455.111z" fill="#000000"/>
</svg>
