<svg xmlns="http://www.w3.org/2000/svg" xmlns:xlink="http://www.w3.org/1999/xlink" version="1.1" x="0px" y="0px" viewBox="0 0 20 25" enable-background="new 0 0 20 20" xml:space="preserve"><g><path fill="#000000" d="M17.3,9.3l-3,3c-0.4,0.4-0.4,1,0,1.4c0.4,0.4,1,0.4,1.4,0l3-3c0.4-0.4,0.4-1,0-1.4   C18.5,9.1,17.8,8.7,17.3,9.3z"/><path fill="#000000" d="M14.7,8.7l3-3c0.4-0.4,0.4-1,0-1.4c-0.2-0.2-0.9-0.5-1.4,0l-3,3c-0.4,0.4-0.4,1,0,1.4   C13.7,9.1,14.3,9.1,14.7,8.7z"/><path fill="#000000" d="M6.7,5.7l2-2c0.4-0.4,0.4-1,0-1.4c-0.4-0.4-1-0.4-1.4,0l-2,2c-0.4,0.4-0.4,1,0,1.4C5.5,5.9,6.1,6.3,6.7,5.7   z"/><path fill="#000000" d="M9.3,6.7c0.4,0.4,1,0.4,1.4,0l3-3c0.4-0.4,0.4-1,0-1.4c-0.2-0.2-0.8-0.6-1.4,0l-3,3   C8.9,5.7,8.9,6.3,9.3,6.7z"/><circle fill="#000000" cx="10" cy="1" r="1"/><circle fill="#000000" cx="19" cy="3" r="1"/><path fill="#000000" d="M6,8c-3.3,0-6,2.7-6,6s2.7,6,6,6s6-2.7,6-6S9.3,8,6,8z M4,17c-0.6,0-1-0.4-1-1c0-0.6,0.4-1,1-1s1,0.4,1,1   C5,16.6,4.5,17,4,17z M4,13c-0.6,0-1-0.4-1-1c0-0.6,0.4-1,1-1s1,0.4,1,1C5,12.6,4.5,13,4,13z M9,16c-0.6,0-1-0.4-1-1   c0-0.6,0.4-1,1-1c0.6,0,1,0.4,1,1C10,15.6,9.5,16,9,16z"/></g><text x="0" y="35" fill="#000000" font-size="5px" font-weight="bold" font-family="'Helvetica Neue', Helvetica, Arial-Unicode, Arial, Sans-serif">Created by ProSymbols</text><text x="0" y="40" fill="#000000" font-size="5px" font-weight="bold" font-family="'Helvetica Neue', Helvetica, Arial-Unicode, Arial, Sans-serif">from the Noun Project</text></svg>