<?xml version="1.0" encoding="UTF-8"?>
<!-- Generator: Adobe Illustrator 15.0.2, SVG Export Plug-In . SVG Version: 6.00 Build 0)  -->
<!DOCTYPE svg PUBLIC "-//W3C//DTD SVG 1.1//EN" "http://www.w3.org/Graphics/SVG/1.1/DTD/svg11.dtd">
<svg xmlns="http://www.w3.org/2000/svg" xmlns:xlink="http://www.w3.org/1999/xlink" version="1.1" id="Layer_1" x="0px" y="0px" width="512px" height="512px" viewBox="0 0 512 512" enable-background="new 0 0 512 512" xml:space="preserve">
<g>
	<path d="M85.333,0C38.229,0,0,38.229,0,85.333v341.334C0,473.75,38.229,512,85.333,512c47.104,0,85.334-38.25,85.334-85.333V85.333   C170.667,38.229,132.438,0,85.333,0z M341.333,426.667c0,47.083,38.25,85.333,85.334,85.333C473.75,512,512,473.75,512,426.667   V85.333C512,38.229,473.75,0,426.667,0c-47.084,0-85.334,38.229-85.334,85.333V426.667z" fill="#000000"/>
</g>
</svg>
