<?xml version="1.0" encoding="UTF-8" standalone="no"?>
<svg
   xmlns:dc="http://purl.org/dc/elements/1.1/"
   xmlns:cc="http://creativecommons.org/ns#"
   xmlns:rdf="http://www.w3.org/1999/02/22-rdf-syntax-ns#"
   xmlns:svg="http://www.w3.org/2000/svg"
   xmlns="http://www.w3.org/2000/svg"
   xmlns:sodipodi="http://sodipodi.sourceforge.net/DTD/sodipodi-0.dtd"
   xmlns:inkscape="http://www.inkscape.org/namespaces/inkscape"
   viewBox="0 0 512 512"
   id="svg2"
   version="1.1"
   inkscape:version="0.91 r"
   sodipodi:docname="plate-motion.svg">
  <metadata
     id="metadata12">
    <rdf:RDF>
      <cc:Work
         rdf:about="">
        <dc:format>image/svg+xml</dc:format>
        <dc:type
           rdf:resource="http://purl.org/dc/dcmitype/StillImage" />
        <dc:title></dc:title>
      </cc:Work>
    </rdf:RDF>
  </metadata>
  <defs
     id="defs10" />
  <sodipodi:namedview
     pagecolor="#ffffff"
     bordercolor="#666666"
     borderopacity="1"
     objecttolerance="10"
     gridtolerance="10"
     guidetolerance="10"
     inkscape:pageopacity="0"
     inkscape:pageshadow="2"
     inkscape:window-width="640"
     inkscape:window-height="480"
     id="namedview8"
     showgrid="false"
     inkscape:zoom="0.4609375"
     inkscape:cx="256"
     inkscape:cy="207.472"
     inkscape:window-x="1093"
     inkscape:window-y="333"
     inkscape:window-maximized="0"
     inkscape:current-layer="g3735" />
  <g
     id="g3735"
     transform="matrix(0.90680444,0,0,1,47.847673,0)">
    <path
       d="m 422.51953,388.17969 c 12.95378,12.95377 25.90755,25.90755 38.86133,38.86133 -58.93164,0 -117.86328,0 -176.79492,0 0,11.01367 0,22.02734 0,33.04101 58.93164,0 117.86328,0 176.79492,0 -12.95378,12.95378 -25.90755,25.90755 -38.86133,38.86133 7.80339,7.80404 15.60677,15.60807 23.41016,23.41211 26.26497,-26.26498 52.52995,-52.52995 78.79492,-78.79492 -26.26497,-26.26433 -52.52995,-52.52865 -78.79492,-78.79297 -7.80339,7.80403 -15.60677,15.60807 -23.41016,23.41211 z"
       id="path3526-9-1-7"
       inkscape:connector-curvature="0" />
    <path
       d="m 422.51953,87.80442 c 12.95378,12.95378 25.90755,25.90755 38.86133,38.86133 -58.93164,0 -117.86328,0 -176.79492,0 0,11.01367 0,22.02734 0,33.04102 58.93164,0 117.86328,0 176.79492,0 -12.95378,12.95377 -25.90755,25.90755 -38.86133,38.86132 7.80339,7.80404 15.60677,15.60808 23.41016,23.41211 26.26497,-26.26432 52.52995,-52.52864 78.79492,-78.79297 C 498.45964,116.92226 472.19466,90.65729 445.92969,64.392313 438.1263,72.19635 430.32292,80.00039 422.51953,87.80442 Z"
       id="path3526-9-1-7-3"
       inkscape:connector-curvature="0" />
    <path
       d="m 422.51953,237.49911 c 12.95378,12.95377 25.90755,25.90755 38.86133,38.86133 -58.93164,0 -117.86328,0 -176.79492,0 0,11.01367 0,22.02734 0,33.04101 58.93164,0 117.86328,0 176.79492,0 -12.95396,12.95425 -25.90753,25.90888 -38.86133,38.86328 7.80339,7.80339 15.60677,15.60677 23.41016,23.41016 26.26497,-26.26432 52.52995,-52.52865 78.79492,-78.79297 -26.26497,-26.26497 -52.52995,-52.52995 -78.79492,-78.79492 -7.80339,7.80403 -15.60677,15.60807 -23.41016,23.41211 z"
       id="path3526-9-1-7-6"
       inkscape:connector-curvature="0" />
  </g>
  <g
     id="g3512"
     transform="matrix(0.55875109,0,0,0.77751619,6.5079724,26.378254)">
    <path
       id="path3514"
       d="m 132.55,428.628 c -16.454,0 -31.782,-6.428 -43.147,-18.087 -31.309,-32.264 -70.099,-18.177 -79.285,24.533 -14.803,69.116 -13.383,113.397 4.392,135.412 10.204,12.659 22.193,13.588 25.595,13.588 l 381.599,1 c 49.637,0 90.097,-38.906 90.097,-86.74 l 0,-239.508 0.106,-11.444 c 0.321,-29.443 0.696,-59.868 -14.962,-75.661 -10.356,-10.499 -25.266,-12.73 -42.156,-5.526 -31.229,13.347 -65.081,15.142 -109.076,6.509 -10.999,-2.188 -15.355,-5.776 -15.213,-5.294 0,-0.045 0.715,-3.259 7.356,-9.106 19.658,-17.444 30.961,-41.941 30.961,-67.358 C 368.78,40.772 326.393,0 274.282,0 c -52.074,0 -94.453,40.772 -94.453,90.909 0,24.935 11.41,48.343 33.898,69.661 1.062,1.054 3.214,3.106 4.901,5.009 -3.661,1.785 -10.937,4.419 -24.828,6.758 -36.353,6.106 -72.152,-2.518 -99.542,-8.99 -30.567,-7.204 -50.021,-9.579 -61.322,1.901 -12.65,12.794 -40.112,51.959 -22.703,139.931 2.634,13.462 10.749,54.422 41.87,54.422 15.391,0 26.907,-11.142 34.041,-17.998 45.271,-43.548 104.326,-12.392 104.326,32.711 -0.034,29.924 -25.995,54.314 -57.92,54.314 z m 0,-145.269 c -25.596,0 -49.735,10.713 -72.697,32.764 -1.241,1.232 -4.026,3.875 -6.249,5.554 -1.795,-3.071 -4.759,-9.785 -7.499,-23.578 -13.168,-66.555 3.58,-95.81 10.748,-104.765 6.178,0.179 17.257,2.812 29.032,5.589 22.712,5.339 50.977,11.999 82.205,11.999 10.972,0 21.685,-0.84 31.782,-2.526 20.917,-3.509 49.521,-10.714 56.127,-32.398 6.07,-19.962 -10.213,-35.397 -17.212,-42.013 -15.079,-14.302 -22.391,-28.345 -22.391,-43.075 0,-29.952 25.961,-54.342 57.886,-54.342 31.935,0 57.931,24.39 57.931,54.342 0,15.132 -6.605,29.327 -18.604,39.933 -20.578,18.132 -21.435,34.55 -18.543,45.119 4.339,16.088 20.257,27.971 43.504,32.541 51.209,10.026 92.668,7.428 130.557,-8.704 1.178,-0.545 2.071,-0.804 2.553,-1.054 4.054,8.187 3.768,34.925 3.625,48.191 l -0.107,251.398 c 0,27.64 -23.997,50.173 -53.493,50.173 L 43.58,548.186 c -0.179,-0.143 -17.186,-15.069 2.268,-105.435 2.018,-9.463 5.74,-13.677 6.695,-14.123 0,0 3.651,0.196 10.605,7.356 18.284,18.837 42.924,29.175 69.331,29.175 52.065,0 94.453,-40.763 94.453,-90.899 -10e-4,-50.119 -42.308,-90.901 -94.382,-90.901 z"
       inkscape:connector-curvature="0"
       style="fill:#000000" />
  </g>
</svg>
