<?xml version="1.0" encoding="UTF-8" standalone="no"?>
<svg
   xmlns:dc="http://purl.org/dc/elements/1.1/"
   xmlns:cc="http://creativecommons.org/ns#"
   xmlns:rdf="http://www.w3.org/1999/02/22-rdf-syntax-ns#"
   xmlns:svg="http://www.w3.org/2000/svg"
   xmlns="http://www.w3.org/2000/svg"
   xmlns:sodipodi="http://sodipodi.sourceforge.net/DTD/sodipodi-0.dtd"
   xmlns:inkscape="http://www.inkscape.org/namespaces/inkscape"
   viewBox="0 0 512 512"
   id="svg2"
   version="1.1"
   inkscape:version="0.91 r"
   sodipodi:docname="powder-flow.svg">
  <metadata
     id="metadata12">
    <rdf:RDF>
      <cc:Work
         rdf:about="">
        <dc:format>image/svg+xml</dc:format>
        <dc:type
           rdf:resource="http://purl.org/dc/dcmitype/StillImage" />
        <dc:title></dc:title>
      </cc:Work>
    </rdf:RDF>
  </metadata>
  <defs
     id="defs10" />
  <sodipodi:namedview
     pagecolor="#ffffff"
     bordercolor="#666666"
     borderopacity="1"
     objecttolerance="10"
     gridtolerance="10"
     guidetolerance="10"
     inkscape:pageopacity="0"
     inkscape:pageshadow="2"
     inkscape:window-width="640"
     inkscape:window-height="480"
     id="namedview8"
     showgrid="false"
     inkscape:zoom="0.4609375"
     inkscape:cx="256"
     inkscape:cy="256"
     inkscape:window-x="1093"
     inkscape:window-y="333"
     inkscape:window-maximized="0"
     inkscape:current-layer="svg2" />
  <path
     d="m 365.57355,5.1855469 c -14.28822,0 -27.27757,11.2871261 -36.75976,29.3457031 -5.06582,9.781729 -5.06582,25.833505 0,35.615234 5.06582,10.283356 13.37949,10.283356 18.44531,0 4.67615,-9.280102 11.17034,-14.796875 18.31445,-14.796875 a 25.97859,50.162712 0 0 1 25.97852,50.162111 25.97859,50.162712 0 0 1 -25.97852,50.16211 l -99.08398,0 c 12.19973,16.1275 23.61454,32.8267 33.97265,50.16406 l 65.11133,0 A 51.957181,100.32542 0 0 0 417.53058,105.51172 51.957181,100.32542 0 0 0 365.57355,5.1855469 Z M 456.49738,155.67383 c -10.78112,0 -20.52289,8.52833 -27.53711,22.07226 -4.93593,9.78173 -4.93593,25.58351 0,35.36524 5.06583,9.78173 13.25059,9.78173 18.31641,0 2.33806,-4.51464 5.58369,-7.27344 9.2207,-7.27344 A 12.989296,25.081356 0 0 1 469.48761,230.91797 12.989296,25.081356 0 0 1 456.49738,256 l -129.9668,0 c 0.65573,0.5227 1.4677,0.8624 2.53125,0.9043 21.48495,4.95347 35.28142,28.01431 32.83594,49.25781 l 94.59961,0 a 38.967886,75.244069 0 0 0 38.96875,-75.24414 38.967886,75.244069 0 0 0 -38.96875,-75.24414 z m -88.75977,200.65234 c -1.22788,6.76633 -3.91514,13.25546 -8.02148,18.76172 -0.68075,2.07054 -5.10319,3.9557 -3.53906,5.72461 6.13629,7.40624 9.20589,16.42515 9.68164,25.67578 l 77.65039,0 a 12.989296,25.081356 0 0 1 12.98828,25.08203 12.989296,25.081356 0 0 1 -12.98828,25.08008 c -3.637,0 -6.8846,-2.7588 -9.22266,-7.27344 -5.06584,-9.78173 -13.24862,-9.78173 -18.31445,0 -4.93592,9.78172 -4.93592,25.58351 0,35.36524 7.01423,13.54393 16.756,22.07226 27.53711,22.07226 a 38.967886,75.244069 0 0 0 38.9668,-75.24414 38.967886,75.244069 0 0 0 -38.9668,-75.24414 l -75.77149,0 z m -81.34765,38.72071 -0.5,0.0254 c -4.60364,2.09818 4.40712,2.95895 0.85156,0.0586 l -0.35156,-0.084 z"
     id="path3335"
     inkscape:connector-curvature="0" />
  <path
     d="m 175.80672,106.11786 c -8.73914,0.18 -16.2821,7.03 -24.70017,16.313 -44.90239,49.501 -100.059797,118.141 -115.488479,166.281 -5.801845,-11.01 -26.0138701,-8.578 -26.0138701,6.656 0,13.07 14.0639151,16.687 22.1007371,11.094 -0.430206,4.334 -0.363752,8.38 0.241336,12.125 -4.453865,1.883 -7.890622,5.995 -7.890622,12.28 0,13.762 15.592373,17.075 23.3242,10.158 3.518602,2.766 7.210686,5.383 11.060862,7.812 -0.573609,1.512 -0.874404,3.237 -0.874404,5.156 0,11.616 11.100035,15.766 19.215903,12.626 -0.10213,0.71 -0.153895,1.472 -0.153895,2.25 0,18.294 27.565412,18.13 27.565412,0 0,-0.147 -0.0182,-0.293 -0.021,-0.437 9.98569,2.734 20.36662,4.778 30.97489,6.155 2.10067,14.32 22.84433,14.91 26.75676,2.063 10.51524,0.29 21.09972,0 31.58768,-0.875 -0.0951,0.693 -0.17488,1.43 -0.17488,2.187 0,14.17 16.54582,17.252 24.00274,9.5 8.19142,17.38 39.1733,14.1 39.1733,-9.375 0,-2.304 -0.28471,-4.408 -0.83103,-6.313 6.69094,4.504 15.78824,5.225 23.25914,2.157 1.70544,16.508 27.47868,15.748 27.47868,-1.783 0,-9.43 -7.44503,-13.827 -14.60325,-13.406 0.40362,-1.795 0.63377,-3.732 0.63377,-5.81 0,-1.85 -0.18188,-3.57 -0.50366,-5.19 3.55568,-1.994 6.97984,-4.1 10.25361,-6.28 8.56217,-5.705 12.30462,-14.928 12.37247,-26.563 8.0676,5.37 21.90417,1.566 21.90417,-11.28 0,-14.457 -17.53285,-17.168 -24.63721,-8.657 -12.97615,-51.64 -69.42208,-128.954 -112.46934,-175.188 -9.21762,-9.9 -16.74659,-13.796 -23.54386,-13.656 z m 153.21938,231.094 c -6.89311,0.043 -13.7946,4.577 -13.7946,13.47 0,18.293 27.56611,18.13 27.56611,0 0,-9.066 -6.87911,-13.513 -13.77221,-13.47 z m -310.828956,11.563 c -6.893102,0.043 -13.7945981,4.576 -13.7945981,13.468 0,18.296 27.5654131,18.13 27.5654131,0 0,-9.064 -6.879112,-13.51 -13.771514,-13.467 z m 31.761151,28.437 c -7.491891,0.047 -14.99078,4.817 -15.498634,14.156 -7.282037,-0.53 -15.03975,3.978 -15.03975,13.406 0,17.342 24.765921,18.098 27.346459,2.688 8.663596,1.59 18.712247,-3.445 18.712247,-15.063 0,-10.204 -7.76191,-15.236 -15.521022,-15.187 z m 62.411455,10.406 c -4.65672,0.03 -9.31765,2.1 -11.84992,6.188 -9.437963,-2.84 -21.597076,2.275 -21.597076,15.094 0,19.417 26.362926,21.175 31.588366,5.718 7.45272,0.872 15.63015,-3.65 15.63015,-13.53 0,-9.066 -6.87841,-13.513 -13.77082,-13.47 z m 62.38768,1.625 c -6.8917,0.044 -13.7925,4.578 -13.7925,13.47 0,18.294 27.58711,18.13 27.58711,0 0,-9.065 -6.9015,-13.512 -13.79461,-13.47 z m 147.33779,6.064 c -9.05883,0.056 -18.12185,6.03 -18.12185,17.72 0,24.043 36.22131,23.826 36.22131,-0.002 0,-11.913 -9.03993,-17.775 -18.09946,-17.718 z m -52.59505,7.125 c -6.89311,0.042 -13.7946,4.575 -13.7946,13.467 0,18.295 27.58779,18.13 27.58779,0 0,-9.064 -6.90149,-13.51 -13.79459,-13.468 z m -126.81168,13.75 c -7.90321,0.048 -15.80433,5.24 -15.80433,15.436 0,12.487 11.19657,17.455 20.26519,15.063 4.78754,18.704 35.60923,16.82 35.60923,-5.158 0,-15.218 -14.76484,-20.517 -25.44586,-16.28 -2.4889,-6.105 -8.55377,-9.1 -14.62423,-9.063 z m 85.23271,6.936 c -4.34404,0.027 -8.70416,1.842 -11.32248,5.406 -8.11237,-4.94 -21.53132,-1.042 -21.53132,11.375 -0.001,14.898 18.28343,17.537 25.07231,8.22 8.11237,5.024 21.55441,1.126 21.55441,-11.532 0,-9.065 -6.88051,-13.512 -13.77362,-13.47 z m -168.123411,2.564 c -7.904613,0.048 -15.82741,5.24 -15.82741,15.436 0,20.978 31.632438,20.79 31.632438,0 0,-10.394 -7.901814,-15.487 -15.805028,-15.437 z m 234.382261,13.84 c -7.75912,0.05 -15.52103,5.146 -15.52103,15.157 0,20.594 31.04135,20.41 31.04135,0 0,-10.206 -7.76121,-15.206 -15.52032,-15.158 z m -189.33017,1.844 c -7.904606,0.05 -15.805024,5.24 -15.805024,15.438 0,20.978 31.610054,20.79 31.610054,0 0,-10.395 -7.90182,-15.487 -15.80503,-15.438 z"
     id="path6"
     inkscape:connector-curvature="0"
     style="fill:#000000;fill-rule:evenodd" />
</svg>
