<?xml version="1.0" encoding="UTF-8"?>
<!-- Generator: Adobe Illustrator 15.0.2, SVG Export Plug-In . SVG Version: 6.00 Build 0)  -->
<!DOCTYPE svg PUBLIC "-//W3C//DTD SVG 1.1//EN" "http://www.w3.org/Graphics/SVG/1.1/DTD/svg11.dtd">
<svg xmlns="http://www.w3.org/2000/svg" xmlns:xlink="http://www.w3.org/1999/xlink" version="1.1" id="Layer_1" x="0px" y="0px" width="512px" height="473.326px" viewBox="0 0 512 473.326" enable-background="new 0 0 512 473.326" xml:space="preserve">
<g>
	<path d="M511.993,11.979L511.993,11.979c0-6.614-5.359-11.973-11.976-11.979H11.983l0,0C5.362,0,0,5.359,0,11.973v0.006v42.838l0,0   c0,6.613,5.362,11.976,11.983,11.976c0,0,0,0,0.006,0h488.034c6.624,0,11.977-5.362,11.977-11.976l0,0L511.993,11.979   L511.993,11.979z" fill="#000000"/>
	<path d="M470.85,100.203H41.141c-6.617,0.007-11.976,5.366-11.976,11.979c0,0.023,0.006,0.043,0.006,0.043l-0.006,0.02v249.259   c0,14.767,12.458,26.717,27.854,26.717H239.3v36.047c-6.482,5.019-10.728,12.789-10.728,21.62   c0,15.147,12.284,27.438,27.431,27.438c15.147,0,27.432-12.291,27.432-27.438c0-8.845-4.252-16.614-10.744-21.633v-36.034h182.284   c15.39,0,27.852-11.95,27.852-26.717V111.963h-0.014C482.682,105.454,477.388,100.21,470.85,100.203z" fill="#000000"/>
</g>
</svg>
