<?xml version="1.0" encoding="UTF-8"?>
<!-- Generator: Adobe Illustrator 15.0.2, SVG Export Plug-In . SVG Version: 6.00 Build 0)  -->
<!DOCTYPE svg PUBLIC "-//W3C//DTD SVG 1.1//EN" "http://www.w3.org/Graphics/SVG/1.1/DTD/svg11.dtd">
<svg xmlns="http://www.w3.org/2000/svg" xmlns:xlink="http://www.w3.org/1999/xlink" version="1.1" id="Layer_1" x="0px" y="0px" width="512px" height="585.074px" viewBox="0 0 512 585.074" enable-background="new 0 0 512 585.074" xml:space="preserve">
<g>
	<path d="M132.55,428.628c-16.454,0-31.782-6.428-43.147-18.087c-31.309-32.264-70.099-18.177-79.285,24.533   C-4.685,504.19-3.265,548.471,14.51,570.486c10.204,12.659,22.193,13.588,25.595,13.588l381.599,1   c49.637,0,90.097-38.906,90.097-86.74V258.826l0.106-11.444c0.321-29.443,0.696-59.868-14.962-75.661   c-10.356-10.499-25.266-12.73-42.156-5.526c-31.229,13.347-65.081,15.142-109.076,6.509c-10.999-2.188-15.355-5.776-15.213-5.294   c0-0.045,0.715-3.259,7.356-9.106c19.658-17.444,30.961-41.941,30.961-67.358C368.78,40.772,326.393,0,274.282,0   c-52.074,0-94.453,40.772-94.453,90.909c0,24.935,11.41,48.343,33.898,69.661c1.062,1.054,3.214,3.106,4.901,5.009   c-3.661,1.785-10.937,4.419-24.828,6.758c-36.353,6.106-72.152-2.518-99.542-8.99c-30.567-7.204-50.021-9.579-61.322,1.901   c-12.65,12.794-40.112,51.959-22.703,139.931c2.634,13.462,10.749,54.422,41.87,54.422c15.391,0,26.907-11.142,34.041-17.998   c45.271-43.548,104.326-12.392,104.326,32.711C190.436,404.238,164.475,428.628,132.55,428.628z M132.55,283.359   c-25.596,0-49.735,10.713-72.697,32.764c-1.241,1.232-4.026,3.875-6.249,5.554c-1.795-3.071-4.759-9.785-7.499-23.578   c-13.168-66.555,3.58-95.81,10.748-104.765c6.178,0.179,17.257,2.812,29.032,5.589c22.712,5.339,50.977,11.999,82.205,11.999   c10.972,0,21.685-0.84,31.782-2.526c20.917-3.509,49.521-10.714,56.127-32.398c6.07-19.962-10.213-35.397-17.212-42.013   c-15.079-14.302-22.391-28.345-22.391-43.075c0-29.952,25.961-54.342,57.886-54.342c31.935,0,57.931,24.39,57.931,54.342   c0,15.132-6.605,29.327-18.604,39.933c-20.578,18.132-21.435,34.55-18.543,45.119c4.339,16.088,20.257,27.971,43.504,32.541   c51.209,10.026,92.668,7.428,130.557-8.704c1.178-0.545,2.071-0.804,2.553-1.054c4.054,8.187,3.768,34.925,3.625,48.191   l-0.107,251.398c0,27.64-23.997,50.173-53.493,50.173l-378.125-0.321c-0.179-0.143-17.186-15.069,2.268-105.435   c2.018-9.463,5.74-13.677,6.695-14.123c0,0,3.651,0.196,10.605,7.356c18.284,18.837,42.924,29.175,69.331,29.175   c52.065,0,94.453-40.763,94.453-90.899C226.931,324.141,184.624,283.359,132.55,283.359z" fill="#000000"/>
</g>
</svg>
