<?xml version="1.0" encoding="UTF-8"?>
<svg xmlns="http://www.w3.org/2000/svg" height="1000" width="1000"><path d="M0 344.128q0 -89.792 64.416 -154.208t154.208 -64.416q17.568 0 31.232 1.952 43.432 -61 109.312 -93.696 67.344 -33.184 140.544 -33.184t140.544 33.184q65.88 32.696 109.312 93.696 13.664 -1.952 31.232 -1.952 89.792 0 154.208 64.416t64.416 154.208 -64.416 154.208 -154.208 64.416q-41.48 0 -78.08 -13.664 -87.84 76.128 -203.008 76.128t-203.008 -76.128q-36.6 13.664 -78.08 13.664 -89.792 0 -154.208 -64.416t-64.416 -154.208zm187.392 406.016q0 -34.648 62.464 -124.928l15.616 23.424q17.568 26.84 31.232 54.656 15.616 32.208 15.616 46.848 0 25.376 -18.544 43.92t-43.92 18.544 -43.92 -18.544 -18.544 -43.92zm251.808 187.392q0 -34.648 62.464 -124.928l15.616 23.424q17.568 26.84 31.232 54.656 15.616 32.208 15.616 46.848 0 25.376 -18.544 43.92t-43.92 18.544 -43.92 -18.544 -18.544 -43.92zm247.904 -62.464q0 -34.648 62.464 -124.928l15.616 23.424q17.568 26.84 31.232 54.656 15.616 32.208 15.616 46.848 0 25.376 -18.544 43.92t-43.92 18.544 -43.92 -18.544 -18.544 -43.92z" fill="#000000"/></svg>
