<?xml version="1.0" encoding="UTF-8"?>
<svg xmlns="http://www.w3.org/2000/svg" height="1000" width="1082.5"><path d="m1 599.6q0-89.8 56.1-159.9t142.1-90.1q24.4-106.4 109.9-174.8t195.3-68.4q107.4 0 191.6 66.7t109.7 171.1h17.1q69.8 0 129.3 34t94.3 92.7t34.7 128.7q0 51.3-19.6 98.4t-52.7 81.5t-79.4 55.7t-96.9 22.7q-9.7 0-9.7-8.8v-69.3q0-9.3 9.7-9.3q66.4-3.4 113.5-53.2t47.2-117.7q0-68.3-50.6-118.2t-119.8-49.8h-84.5q-8.8 0-8.8-8.7l-3.9-30.3q-8.8-84.5-72.8-141.4t-148.4-56.9q-85.5 0-148.7 56.9t-71 141.4l-3.9 27.8q0 9.8-10.3 9.8l-27.3 1.4q-65 7.9-109.2 55.7t-44.2 112.3q0 67.9 46.9 117.7t113.8 53.2q8.8 0 8.8 9.3v69.3q0 8.8-8.8 8.8q-104.5-4.9-177-79.6t-72.5-178.7z m279.3 348.2q0-4.9 1.4-10.3l85-300.3q4.9-15.1 16.8-22.9t24.2-7.9q5.9 0 13.2 1.5q18.6 3.4 27.8 19.1t3.9 34.6l-84.9 298.4q-9.8 33.2-43 33.2q-2.4 0-5.4-1q-4.4-1.5-5.8-1.5q-16.6-4.9-24.9-17.3t-8.3-25.6z m136.7 146.4l126.5-457q3.4-15.1 15.6-22.9t25.9-7.9q6.3 0 13.6 1.5q17.6 4.9 25.9 20.3t3.4 33.4l-126.9 457.5q-3 13.2-14.9 22.5t-26.1 9.3q-7.9 0-13.7-2.5q-15.6-3.9-26.9-20.5q-8.3-13.2-2.4-33.7z m214.8-145q0-5.4 1.5-11.7l85-300.3q4.4-15.1 15.8-22.9t24.2-7.9q6.8 0 14.2 1.5q15.6 4.4 23.6 16.1t8.1 24.4q0 2.5-1 7.1t-1 6.1l-84.4 298.4q-3 15.1-14.9 24.1t-26.6 9.1l-12.7-2.5q-15.7-4.4-23.7-16.6t-8.1-24.9z" fill="#000000"/></svg>
