<svg xmlns="http://www.w3.org/2000/svg" xmlns:xlink="http://www.w3.org/1999/xlink" version="1.1" x="0px" y="0px" viewBox="-252 375.9 90 112.5" style="enable-background:new -252 375.9 90 90;" xml:space="preserve"><path d="M-196.8,418.4c1.4,0,4.3-0.2,7.6-1.6l-0.1-0.3c-3.9,1.1-6.2,0.8-6.8,0.7c1.8-3.1,3.5-7.2,4.3-12.3l-0.6-0.2  c-3.8,12.6-11.1,16.2-11.3,16.3c-0.1-0.2-0.1-0.3-0.2-0.5c-5-15.1-5.8-25.3-5.7-30.6l-0.9-0.2c-0.6,3.5-0.8,9.4,0.5,19  c-1.6-1.1-4.2-3.2-7.3-6.9l-0.4,0.6c2.8,4.3,6,7.2,8.1,8.9c0.4,2.6,0.9,5.5,1.5,8.7c1.3,6.4,1.4,12.3,0.7,17.7  c-2.1-1.2-8.6-5.7-14.9-18.4l-0.7,0.2c0.6,2.1,1.4,4.1,2.2,6c-1.6-0.3-4.7-1.2-9-3.8l-0.2,0.4c4,3.1,7.9,4.6,10,5.3  c4,8.3,9.2,13.4,11.7,15.5c-1.7,8.3-5,14.8-7.3,18.6l7.6,0.9c5.9-10.7,8.5-23.7,5.4-37.1C-201.6,424.3-199.2,422.1-196.8,418.4z"/><path d="M-199.6,390.6c0,0-5.7-3.7-5.7,1C-204,396.2-199.6,390.6-199.6,390.6z"/><path d="M-199.7,398.3c0,0-7.9-5.1-7.9,1.3C-205.8,406.1-199.7,398.3-199.7,398.3z"/><path d="M-204.6,407.6c3.8,1.9,2.8-4.2,2.8-4.2S-207.6,404.8-204.6,407.6z"/><path d="M-196.6,412c3.1-2.9-3.1-4-3.1-4S-200.2,413.9-196.6,412z"/><path d="M-195.5,441.5c0,0,5.9,0.4,4-3.2C-194.5,435.3-195.5,441.5-195.5,441.5z"/><path d="M-177.4,409.6c4.2,0.8,1.4-4.9,1.4-4.9S-181.1,407.8-177.4,409.6z"/><path d="M-192.9,425.8c-3,3,3.2,3.9,3.2,3.9S-189.4,423.8-192.9,425.8z"/><path d="M-193,403.6c5.9-1.7-1.3-7.2-1.3-7.2S-198.9,403.6-193,403.6z"/><path d="M-178.3,391c0,0-8.5-0.5-5.7,4.6C-179.6,399.9-178.3,391-178.3,391z"/><path d="M-188.9,416.5c-1.7,5.9,6.8,2.8,6.8,2.8S-185.8,411.5-188.9,416.5z"/><path d="M-177.4,434.2c-5.9-1.6-2.6,6.8-2.6,6.8S-172.3,437.2-177.4,434.2z"/><path d="M-225.2,442.1c1.9,2.6,4.7,4.4,7.9,5c0.9,0.2,1.8,0.3,2.7,0.3c1.9,0,3.8-0.4,5.6-1.2l0.7-2.5l-0.1,0  c-2.5,1.7-5.6,2.2-8.5,1.6c-3-0.6-5.5-2.4-7.2-4.9l-1.3-0.3c-2.4,1.4-5.1,1.4-7.4,0c-2.6-1.6-4.4-4.7-4.3-7.7c0.1-1.8,0.8-4.3,4.1-6  l-0.6-1.8c-1.5,0.3-2.8,0.1-3.8-0.7c-1.9-1.4-2.3-4.4-2.3-4.4c-0.3-3.1,2-5.8,5.1-6.1l0.8-1.4c-2-4.4-1.7-8.2,0.8-10.7  c2.5-2.5,7-3.3,10.1-1.8l0.4-0.9l0.5-0.8c-4.5-3-4.7-7.2-3.4-10.1c1.4-3.2,5.1-6,9.9-4.8l0.4-0.3c0-1.5-9.7-2-12.1,4.3  c-1.1,2.8-1.4,6.6,1.2,9.9c-3.1-0.2-6.3,0.9-8.5,3.1c-1.7,1.7-4.2,5.5-1.7,11.8c-3.5,0.9-5.9,4.3-5.6,8c0,0.2,0.4,3.8,3.1,5.8  c0.6,0.5,1.4,0.8,2.2,1c-1.6,1.6-2.5,3.6-2.6,5.9c-0.1,3.7,2,7.5,5.3,9.4c1.5,0.9,3,1.3,4.6,1.3C-227.8,443-226.5,442.7-225.2,442.1  z"/></svg>