<?xml version="1.0" encoding="UTF-8" standalone="no"?>
<svg
   xmlns:dc="http://purl.org/dc/elements/1.1/"
   xmlns:cc="http://creativecommons.org/ns#"
   xmlns:rdf="http://www.w3.org/1999/02/22-rdf-syntax-ns#"
   xmlns:svg="http://www.w3.org/2000/svg"
   xmlns="http://www.w3.org/2000/svg"
   xmlns:sodipodi="http://sodipodi.sourceforge.net/DTD/sodipodi-0.dtd"
   xmlns:inkscape="http://www.inkscape.org/namespaces/inkscape"
   viewBox="0 0 512 512"
   id="svg2"
   version="1.1"
   inkscape:version="0.91 r"
   sodipodi:docname="stone-pile-flow.svg">
  <metadata
     id="metadata12">
    <rdf:RDF>
      <cc:Work
         rdf:about="">
        <dc:format>image/svg+xml</dc:format>
        <dc:type
           rdf:resource="http://purl.org/dc/dcmitype/StillImage" />
        <dc:title></dc:title>
      </cc:Work>
    </rdf:RDF>
  </metadata>
  <defs
     id="defs10" />
  <sodipodi:namedview
     pagecolor="#ffffff"
     bordercolor="#666666"
     borderopacity="1"
     objecttolerance="10"
     gridtolerance="10"
     guidetolerance="10"
     inkscape:pageopacity="0"
     inkscape:pageshadow="2"
     inkscape:window-width="640"
     inkscape:window-height="480"
     id="namedview8"
     showgrid="false"
     inkscape:zoom="0.32593203"
     inkscape:cx="434.4022"
     inkscape:cy="70.013429"
     inkscape:window-x="1072"
     inkscape:window-y="283"
     inkscape:window-maximized="0"
     inkscape:current-layer="svg2" />
  <path
     d="m 384.14524,19.693125 c -13.04547,0 -24.90505,10.930564 -33.5625,28.421875 -4.62521,9.47446 -4.62521,25.023588 0,34.498047 4.62521,9.960327 12.21659,9.960327 16.8418,0 4.26942,-8.98859 10.19796,-14.333984 16.7207,-14.333984 a 23.719021,48.586976 0 0 1 23.71875,48.587897 23.719021,48.586976 0 0 1 -23.71875,48.58594 l -68.38281,0 c 6.47233,15.37844 9.89174,32.02897 12.75781,48.58789 l 55.625,0 A 47.438041,97.173952 0 0 0 431.58469,116.86696 47.438041,97.173952 0 0 0 384.14524,19.693125 Z M 467.16282,165.4529 c -9.8434,0 -18.73845,8.26042 -25.14258,21.3789 -4.50662,9.47446 -4.50662,24.77945 0,34.25391 4.62521,9.47446 12.09745,9.47446 16.72266,0 2.13471,-4.37283 5.09926,-7.04492 8.41992,-7.04492 a 11.85951,24.293488 0 0 1 11.85937,24.29296 11.85951,24.293488 0 0 1 -11.85937,24.29297 l -131.28516,0 c 2.97828,16.15002 6.36392,32.26671 7.75,48.58789 l 123.53516,0 A 35.578531,72.880464 0 0 0 502.74094,238.33375 35.578531,72.880464 0 0 0 467.16282,165.4529 Z M 348.93235,359.80055 c 0.21417,0.30382 0.41973,0.61304 0.64453,0.91016 6.73149,15.86632 2.737,33.9549 -7.12695,47.67773 l 112.85351,0 a 11.85951,24.293488 0 0 1 11.85938,24.29297 11.85951,24.293488 0 0 1 -11.85938,24.29297 c -3.32067,0 -6.28521,-2.67209 -8.41992,-7.04492 -4.62521,-9.47446 -12.09744,-9.47446 -16.72266,0 -4.50661,9.47446 -4.50661,24.77944 0,34.2539 6.40414,13.11848 15.29918,21.37891 25.14258,21.37891 a 35.578531,72.880464 0 0 0 35.57813,-72.88086 35.578531,72.880464 0 0 0 -35.57813,-72.88086 l -106.37109,0 z"
     id="path3342"
     inkscape:connector-curvature="0" />
  <path
     fill="#0"
     d="m 214.79578,118.10837 -60.14788,97.23855 -17.01595,87.39609 11.0828,36.96881 12.90066,9.34916 20.96633,-55.45069 7.1381,-3.63417 39.01727,27.02972 12.80146,-13.085 2.8244,-43.9925 7.21582,53.993 -6.71159,14.25679 2.38336,1.65098 3.30968,6.5435 4.31685,34.57288 35.36956,-67.22196 8.83337,0.23154 14.15174,28.76627 -5.97296,-52.5937 -18.98861,-103.72567 -73.47251,-58.2936 z m -122.654476,12.07227 -18.65878,52.45277 -2.90845,27.80487 16.41569,-8.49851 7.39527,7.42638 0.0531,0.63824 17.878436,60.26571 8.70258,-4.57341 6.91254,4.69925 2.47814,8.26495 12.33199,-63.33813 -0.67862,-33.55914 -25.36912,-0.52549 -18.786406,-23.93917 21.521096,10.96088 26.84766,-7.77872 16.44981,15.98629 22.92509,-37.06143 c -1.75467,-1.1879 -3.54788,-2.37177 -5.42135,-3.54356 l -50.28329,10.19378 -2.22921,-0.25168 -35.578046,-15.62388 z m 157.541286,36.6658 29.734,66.4619 1.33132,62.92841 -15.97528,-60.09759 -41.27426,-60.80831 26.18422,-8.48441 z m -165.673306,55.69028 -40.5868,21.01573 -10.55836,79.07779 32.09462,5.61936 0.37659,-7.18779 23.79706,-36.9527 -5.12311,-61.56937 z m 35.818796,62.86801 -23.024926,12.09643 -19.99453,31.04643 14.27242,31.0736 36.221916,1.75165 10.42567,-16.26817 -17.90055,-59.69893 z m 69.92525,24.35191 -27.99575,74.03828 -0.0208,57.52247 61.45708,12.29777 27.95469,-19.65871 -11.16241,-89.40043 -50.23275,-34.79837 z m 104.70276,14.17626 -29.59815,56.25001 0.18134,1.78587 41.16369,13.97995 16.28931,-15.0259 -28.03557,-56.99194 z m -87.43785,15.99636 24.78781,22.99489 8.47322,50.99708 -16.94644,23.99756 -28.44312,-2.57009 24.36573,-28.43103 1.5689,-39.49259 -13.8061,-27.49481 z m -150.616116,54.19837 -5.5414,28.70083 8.3102,48.82262 57.522496,-11.98972 0.83406,-26.59483 -39.542976,-32.20916 -21.58175,-6.72874 z"
     id="path6"
     inkscape:connector-curvature="0"
     style="stroke-linejoin:bevel" />
</svg>
