<?xml version="1.0" encoding="UTF-8"?>
<!-- Generator: Adobe Illustrator 15.0.2, SVG Export Plug-In . SVG Version: 6.00 Build 0)  -->
<!DOCTYPE svg PUBLIC "-//W3C//DTD SVG 1.1//EN" "http://www.w3.org/Graphics/SVG/1.1/DTD/svg11.dtd">
<svg xmlns="http://www.w3.org/2000/svg" xmlns:xlink="http://www.w3.org/1999/xlink" version="1.1" id="Layer_1" x="0px" y="0px" width="512px" height="512px" viewBox="0 0 512 512" enable-background="new 0 0 512 512" xml:space="preserve">
<path d="M469.611,2.132L2.132,469.611c2.562,9.819,7.542,18.639,14.507,25.611l0.146,0.139c6.965,6.972,15.785,11.944,25.597,14.5  L509.861,42.382C504.611,22.757,489.25,7.396,469.611,2.132z M252.583,0L0,252.583v80.5L333.083,0H252.583z M56.889,0  C25.598,0,0,25.598,0,56.889v57.028L113.917,0H56.889z M455.111,512c15.639,0,29.861-6.402,40.111-16.639  C505.598,484.973,512,470.75,512,455.111v-57.028L398.083,512H455.111z M178.917,512h80.5L512,259.417v-80.5L178.917,512z" fill="#000000"/>
</svg>
