<?xml version="1.0" encoding="UTF-8"?>
<!-- Generator: Adobe Illustrator 15.0.2, SVG Export Plug-In . SVG Version: 6.00 Build 0)  -->
<!DOCTYPE svg PUBLIC "-//W3C//DTD SVG 1.1//EN" "http://www.w3.org/Graphics/SVG/1.1/DTD/svg11.dtd">
<svg xmlns="http://www.w3.org/2000/svg" xmlns:xlink="http://www.w3.org/1999/xlink" version="1.1" id="Layer_1" x="0px" y="0px" width="512px" height="661.342px" viewBox="0 0 512 661.342" enable-background="new 0 0 512 661.342" xml:space="preserve">
<path d="M213.336,661.342V512c-36.698,0-69.783-14.158-93.125-36.829c-12.599,9.724-28.401,15.487-45.547,15.487  C33.428,490.658,0,457.237,0,416c0-27.263,14.605-51.105,36.421-64.145C13.888,332.632,0,306.336,0,277.336  c0-42.547,29.888-79.276,73.125-96.396c-18.276-13.151-30.461-36.717-30.461-63.604c0-41.237,28.658-74.672,64-74.672  c7.718,0,15.112,1.599,21.961,4.514C157.815,18.138,199.303,0,245.336,0C281.211,0,314.315,11.013,341,29.619  C353.158,21.04,367.987,16,384,16c41.237,0,74.658,33.428,74.658,74.664c0,18.079-6.421,34.651-17.105,47.566  C483.342,154.033,512,186.507,512,224c0,26.164-13.947,49.882-36.592,67.197C498.053,312.362,512,341.355,512,373.342  c0,64.79-57.315,117.316-128,117.316c-26.935,0-51.921-7.619-72.553-20.646l-12.789,12.119v179.21H213.336z" fill="#000000"/>
</svg>
