<?xml version="1.0" encoding="UTF-8"?>
<!-- Generator: Adobe Illustrator 15.0.2, SVG Export Plug-In . SVG Version: 6.00 Build 0)  -->
<!DOCTYPE svg PUBLIC "-//W3C//DTD SVG 1.1//EN" "http://www.w3.org/Graphics/SVG/1.1/DTD/svg11.dtd">
<svg xmlns="http://www.w3.org/2000/svg" xmlns:xlink="http://www.w3.org/1999/xlink" version="1.1" id="Layer_1" x="0px" y="0px" width="512px" height="526.062px" viewBox="-0.003 0 512 526.062" enable-background="new -0.003 0 512 526.062" xml:space="preserve">
<g>
	<path d="M482.51,308.108c-16.287,0-29.487,13.194-29.487,29.487v129.491H58.972V337.596c0-16.293-13.195-29.487-29.488-29.487   c-16.293,0-29.487,13.194-29.487,29.487v158.979c0,16.287,13.194,29.487,29.487,29.487H482.51c16.287,0,29.488-13.2,29.488-29.487   V337.596C511.998,321.303,498.797,308.108,482.51,308.108z" fill="#000000"/>
	<path d="M157.945,169.232l68.569-68.563v253.122c0,16.287,13.194,29.487,29.487,29.487c16.284,0,29.484-13.2,29.484-29.487V100.675   l68.559,68.558c5.759,5.763,13.304,8.642,20.848,8.642c7.545,0,15.102-2.879,20.849-8.642c11.519-11.51,11.519-30.181,0-41.694   L276.847,8.639C271.318,3.102,263.82,0,256.002,0c-7.821,0-15.325,3.102-20.849,8.639L116.248,127.538   c-11.519,11.514-11.519,30.185,0,41.694C127.755,180.751,146.437,180.751,157.945,169.232z" fill="#000000"/>
</g>
</svg>
