<?xml version="1.0" encoding="UTF-8" standalone="no"?>
<svg
   xmlns:dc="http://purl.org/dc/elements/1.1/"
   xmlns:cc="http://creativecommons.org/ns#"
   xmlns:rdf="http://www.w3.org/1999/02/22-rdf-syntax-ns#"
   xmlns:svg="http://www.w3.org/2000/svg"
   xmlns="http://www.w3.org/2000/svg"
   xmlns:sodipodi="http://sodipodi.sourceforge.net/DTD/sodipodi-0.dtd"
   xmlns:inkscape="http://www.inkscape.org/namespaces/inkscape"
   viewBox="0 0 512 512"
   id="svg2"
   version="1.1"
   inkscape:version="0.91 r"
   sodipodi:docname="water-flow.svg">
  <metadata
     id="metadata12">
    <rdf:RDF>
      <cc:Work
         rdf:about="">
        <dc:format>image/svg+xml</dc:format>
        <dc:type
           rdf:resource="http://purl.org/dc/dcmitype/StillImage" />
        <dc:title></dc:title>
      </cc:Work>
    </rdf:RDF>
  </metadata>
  <defs
     id="defs10" />
  <sodipodi:namedview
     pagecolor="#ffffff"
     bordercolor="#666666"
     borderopacity="1"
     objecttolerance="10"
     gridtolerance="10"
     guidetolerance="10"
     inkscape:pageopacity="0"
     inkscape:pageshadow="2"
     inkscape:window-width="640"
     inkscape:window-height="480"
     id="namedview8"
     showgrid="false"
     inkscape:zoom="0.4609375"
     inkscape:cx="324.79871"
     inkscape:cy="309.51688"
     inkscape:window-x="1105"
     inkscape:window-y="332"
     inkscape:window-maximized="0"
     inkscape:current-layer="svg2" />
  <g
     id="g3735"
     transform="matrix(0.90680444,0,0,1,47.847673,0)" />
  <path
     d="M 357.00977 3.0175781 C 340.58632 3.0175781 325.65507 14.595855 314.75586 33.123047 C 308.93301 43.158598 308.93301 59.628511 314.75586 69.664062 C 320.57873 80.214269 330.13418 80.214269 335.95703 69.664062 C 341.33199 60.14315 348.79807 54.480469 357.00977 54.480469 A 29.860838 51.464407 0 0 1 386.87109 105.94531 A 29.860838 51.464407 0 0 1 357.00977 157.41016 L 263.90039 157.41016 C 265.65243 160.23772 267.38953 163.07549 269.09961 165.93164 C 277.18945 179.94558 285.32132 194.23145 292.70312 208.875 L 357.00977 208.875 A 59.721678 102.92881 0 0 0 416.73047 105.94531 A 59.721678 102.92881 0 0 0 357.00977 3.0175781 z M 461.52148 157.41016 C 449.12923 157.41016 437.93157 166.1593 429.86914 180.05469 C 424.19556 190.09024 424.19556 206.30232 429.86914 216.33789 C 435.69201 226.37344 445.09902 226.37344 450.92188 216.33789 C 453.60936 211.70608 457.34096 208.875 461.52148 208.875 A 14.93042 25.732204 0 0 1 476.45312 234.60742 A 14.93042 25.732204 0 0 1 461.52148 260.33984 L 313.68359 260.33984 C 317.36338 272.91027 319.9441 285.79305 320.97852 299.04883 C 321.3723 303.30146 321.58389 307.5563 321.62109 311.80273 L 461.52148 311.80273 A 44.791258 77.196611 0 0 0 506.31445 234.60742 A 44.791258 77.196611 0 0 0 461.52148 157.41016 z M 313.60156 363.26758 C 307.67127 381.67407 298.63879 399.12394 287.10742 414.73242 L 446.5918 414.73242 A 14.93042 25.732204 0 0 1 461.52148 440.46484 A 14.93042 25.732204 0 0 1 446.5918 466.19727 C 442.41128 466.19727 438.67966 463.36622 435.99219 458.73438 C 430.16932 448.69884 420.7623 448.69885 414.93945 458.73438 C 409.2659 468.76997 409.2659 484.98199 414.93945 495.01758 C 423.00188 508.91298 434.19956 517.66016 446.5918 517.66016 A 44.791258 77.196611 0 0 0 491.38281 440.46484 A 44.791258 77.196611 0 0 0 446.5918 363.26758 L 313.60156 363.26758 z "
     id="path3832" />
  <path
     id="path3922"
     d="M 147.85794,449.27078 A 142.24732,142.24732 0 0 1 5.6106147,307.02345 c 0,-94.83152 142.2473253,-254.85978 142.2473253,-254.85978 0,0 142.24729,160.02826 142.24729,254.85978 A 142.24732,142.24732 0 0 1 147.85794,449.27078 Z"
     inkscape:connector-curvature="0" />
</svg>
