<?xml version="1.0" encoding="UTF-8" standalone="no"?>
<!-- Created with Inkscape (http://www.inkscape.org/) -->

<svg
   xmlns:dc="http://purl.org/dc/elements/1.1/"
   xmlns:cc="http://creativecommons.org/ns#"
   xmlns:rdf="http://www.w3.org/1999/02/22-rdf-syntax-ns#"
   xmlns:svg="http://www.w3.org/2000/svg"
   xmlns="http://www.w3.org/2000/svg"
   xmlns:sodipodi="http://sodipodi.sourceforge.net/DTD/sodipodi-0.dtd"
   xmlns:inkscape="http://www.inkscape.org/namespaces/inkscape"
   width="210mm"
   height="297mm"
   viewBox="0 0 210 297"
   version="1.1"
   id="svg8"
   inkscape:version="0.92.2 5c3e80d, 2017-08-06"
   sodipodi:docname="orbits2.svg">
  <defs
     id="defs2" />
  <sodipodi:namedview
     id="base"
     pagecolor="#000000"
     bordercolor="#666666"
     borderopacity="1.0"
     inkscape:pageopacity="0"
     inkscape:pageshadow="2"
     inkscape:zoom="0.49497475"
     inkscape:cx="350.46413"
     inkscape:cy="595.4097"
     inkscape:document-units="mm"
     inkscape:current-layer="layer1"
     showgrid="false"
     inkscape:window-width="1099"
     inkscape:window-height="1025"
     inkscape:window-x="317"
     inkscape:window-y="0"
     inkscape:window-maximized="0" />
  <metadata
     id="metadata5">
    <rdf:RDF>
      <cc:Work
         rdf:about="">
        <dc:format>image/svg+xml</dc:format>
        <dc:type
           rdf:resource="http://purl.org/dc/dcmitype/StillImage" />
        <dc:title />
      </cc:Work>
    </rdf:RDF>
  </metadata>
  <g
     inkscape:label="Layer 1"
     inkscape:groupmode="layer"
     id="layer1">
    <path
       style="fill:none;fill-opacity:1;stroke:#fefefe;stroke-width:2.026;stroke-linecap:round;stroke-miterlimit:4;stroke-dasharray:none;stroke-opacity:0.99215686"
       id="path819"
       sodipodi:type="arc"
       sodipodi:cx="105.65031"
       sodipodi:cy="152.16499"
       sodipodi:rx="88.765099"
       sodipodi:ry="130.47687"
       sodipodi:start="0"
       sodipodi:end="6.2787749"
       sodipodi:open="true"
       d="M 194.41541,152.16499 A 88.765099,130.47687 0 0 1 105.74818,282.64178 88.765099,130.47687 0 0 1 16.885424,152.45272 88.765099,130.47687 0 0 1 105.35669,21.688839 88.765099,130.47687 0 0 1 194.41454,151.58954" />
    <path
       style="fill:#ffffff;fill-opacity:1;stroke:none;stroke-width:2.12527704;stroke-linecap:round;stroke-miterlimit:4;stroke-dasharray:none;stroke-opacity:0.99215686"
       id="path825"
       sodipodi:type="arc"
       sodipodi:cx="108.53353"
       sodipodi:cy="69.278107"
       sodipodi:rx="3.9761524"
       sodipodi:ry="3.9761524"
       sodipodi:start="0"
       sodipodi:end="6.2787696"
       sodipodi:open="true"
       d="m 112.50968,69.278107 a 3.9761524,3.9761524 0 0 1 -3.97176,3.97615 3.9761524,3.9761524 0 0 1 -3.98053,-3.967372 3.9761524,3.9761524 0 0 1 3.96297,-3.984909 3.9761524,3.9761524 0 0 1 3.98928,3.958573" />
    <path
       d="m 21.103504,153.20074 a 3.9761524,3.9761524 0 0 1 -3.971763,3.97615 3.9761524,3.9761524 0 0 1 -3.980532,-3.96737 3.9761524,3.9761524 0 0 1 3.962975,-3.98491 3.9761524,3.9761524 0 0 1 3.989281,3.95858"
       sodipodi:open="true"
       sodipodi:end="6.2787696"
       sodipodi:start="0"
       sodipodi:ry="3.9761524"
       sodipodi:rx="3.9761524"
       sodipodi:cy="153.20074"
       sodipodi:cx="17.127352"
       sodipodi:type="arc"
       id="path827"
       style="fill:#ffffff;fill-opacity:1;stroke:none;stroke-width:2.125;stroke-linecap:round;stroke-miterlimit:4;stroke-dasharray:none;stroke-opacity:0.99215686" />
    <path
       d="m 111.97515,282.5592 a 3.9761524,3.9761524 0 0 1 -3.97177,3.97615 3.9761524,3.9761524 0 0 1 -3.98053,-3.96737 3.9761524,3.9761524 0 0 1 3.96297,-3.98491 3.9761524,3.9761524 0 0 1 3.98929,3.95858"
       sodipodi:open="true"
       sodipodi:end="6.2787696"
       sodipodi:start="0"
       sodipodi:ry="3.9761524"
       sodipodi:rx="3.9761524"
       sodipodi:cy="282.5592"
       sodipodi:cx="107.99899"
       sodipodi:type="arc"
       id="path831"
       style="fill:#ffffff;fill-opacity:1;stroke:none;stroke-width:2.125;stroke-linecap:round;stroke-miterlimit:4;stroke-dasharray:none;stroke-opacity:0.99215686" />
    <path
       style="fill:#ffffff;fill-opacity:1;stroke:none;stroke-width:2.125;stroke-linecap:round;stroke-miterlimit:4;stroke-dasharray:none;stroke-opacity:0.99215686"
       id="path833"
       sodipodi:type="arc"
       sodipodi:cx="70.046722"
       sodipodi:cy="271.86841"
       sodipodi:rx="3.9761524"
       sodipodi:ry="3.9761524"
       sodipodi:start="0"
       sodipodi:end="6.2787696"
       sodipodi:open="true"
       d="m 74.022875,271.86841 a 3.9761524,3.9761524 0 0 1 -3.971763,3.97615 3.9761524,3.9761524 0 0 1 -3.980532,-3.96737 3.9761524,3.9761524 0 0 1 3.962974,-3.98491 3.9761524,3.9761524 0 0 1 3.989282,3.95857" />
    <path
       d="m 146.18564,271.86841 a 3.9761524,3.9761524 0 0 1 -3.97176,3.97615 3.9761524,3.9761524 0 0 1 -3.98053,-3.96737 3.9761524,3.9761524 0 0 1 3.96297,-3.98491 3.9761524,3.9761524 0 0 1 3.98928,3.95857"
       sodipodi:open="true"
       sodipodi:end="6.2787696"
       sodipodi:start="0"
       sodipodi:ry="3.9761524"
       sodipodi:rx="3.9761524"
       sodipodi:cy="271.86841"
       sodipodi:cx="142.20949"
       sodipodi:type="arc"
       id="path835"
       style="fill:#ffffff;fill-opacity:1;stroke:none;stroke-width:2.125;stroke-linecap:round;stroke-miterlimit:4;stroke-dasharray:none;stroke-opacity:0.99215686" />
    <path
       style="fill:#ffffff;fill-opacity:1;stroke:none;stroke-width:2.125;stroke-linecap:round;stroke-miterlimit:4;stroke-dasharray:none;stroke-opacity:0.99215686"
       id="path837"
       sodipodi:type="arc"
       sodipodi:cx="107.99899"
       sodipodi:cy="22.23867"
       sodipodi:rx="3.9761524"
       sodipodi:ry="3.9761524"
       sodipodi:start="0"
       sodipodi:end="6.2787696"
       sodipodi:open="true"
       d="m 111.97515,22.23867 a 3.9761524,3.9761524 0 0 1 -3.97177,3.97615 3.9761524,3.9761524 0 0 1 -3.98053,-3.967371 3.9761524,3.9761524 0 0 1 3.96297,-3.984909 3.9761524,3.9761524 0 0 1 3.98929,3.958573" />
    <path
       style="fill:#ffffff;fill-opacity:1;stroke:none;stroke-width:2.125;stroke-linecap:round;stroke-miterlimit:4;stroke-dasharray:none;stroke-opacity:0.99215686"
       id="path839"
       sodipodi:type="arc"
       sodipodi:cx="194.59431"
       sodipodi:cy="153.20074"
       sodipodi:rx="3.9761524"
       sodipodi:ry="3.9761524"
       sodipodi:start="0"
       sodipodi:end="6.2787696"
       sodipodi:open="true"
       d="m 198.57047,153.20074 a 3.9761524,3.9761524 0 0 1 -3.97177,3.97615 3.9761524,3.9761524 0 0 1 -3.98053,-3.96737 3.9761524,3.9761524 0 0 1 3.96298,-3.98491 3.9761524,3.9761524 0 0 1 3.98928,3.95858" />
    <path
       d="m 8.2478046,292.76279 a 20.848455,30.645391 0 0 1 -20.8254676,30.64537 20.848455,30.645391 0 0 1 -20.871393,-30.57779 20.848455,30.645391 0 0 1 20.779443,-30.71281 20.848455,30.645391 0 0 1 20.9172149,30.51007"
       sodipodi:open="true"
       sodipodi:end="6.2787749"
       sodipodi:start="0"
       sodipodi:ry="30.645391"
       sodipodi:rx="20.848455"
       sodipodi:cy="292.76279"
       sodipodi:cx="-12.600651"
       sodipodi:type="arc"
       id="path4619"
       style="fill:none;fill-opacity:1;stroke:#fefefe;stroke-width:0.47585112;stroke-linecap:round;stroke-miterlimit:4;stroke-dasharray:none;stroke-opacity:0.99215686"
       transform="rotate(-30)" />
    <path
       style="fill:#ffffff;fill-opacity:1;stroke:none;stroke-width:2.125;stroke-linecap:round;stroke-miterlimit:4;stroke-dasharray:none;stroke-opacity:0.99215686"
       id="path4698"
       sodipodi:type="arc"
       sodipodi:cx="-12.363468"
       sodipodi:cy="262.12625"
       sodipodi:rx="3.9761524"
       sodipodi:ry="3.9761524"
       sodipodi:start="0"
       sodipodi:end="6.2787696"
       sodipodi:open="true"
       d="m -8.3873158,262.12625 a 3.9761524,3.9761524 0 0 1 -3.9717632,3.97615 3.9761524,3.9761524 0 0 1 -3.980532,-3.96737 3.9761524,3.9761524 0 0 1 3.962975,-3.98491 3.9761524,3.9761524 0 0 1 3.9892815,3.95857"
       transform="rotate(-30)" />
    <path
       d="m -8.3873158,323.73636 a 3.9761524,3.9761524 0 0 1 -3.9717632,3.97615 3.9761524,3.9761524 0 0 1 -3.980532,-3.96737 3.9761524,3.9761524 0 0 1 3.962975,-3.98491 3.9761524,3.9761524 0 0 1 3.9892815,3.95857"
       sodipodi:open="true"
       sodipodi:end="6.2787696"
       sodipodi:start="0"
       sodipodi:ry="3.9761524"
       sodipodi:rx="3.9761524"
       sodipodi:cy="323.73636"
       sodipodi:cx="-12.363468"
       sodipodi:type="arc"
       id="path4700"
       style="fill:#ffffff;fill-opacity:1;stroke:none;stroke-width:2.125;stroke-linecap:round;stroke-miterlimit:4;stroke-dasharray:none;stroke-opacity:0.99215686"
       transform="rotate(-30)" />
    <path
       style="fill:#ffffff;fill-opacity:1;stroke:none;stroke-width:2.125;stroke-linecap:round;stroke-miterlimit:4;stroke-dasharray:none;stroke-opacity:0.99215686"
       id="path4702"
       sodipodi:type="arc"
       sodipodi:cx="-24.080723"
       sodipodi:cy="319.20065"
       sodipodi:rx="3.9761524"
       sodipodi:ry="3.9761524"
       sodipodi:start="0"
       sodipodi:end="6.2787696"
       sodipodi:open="true"
       d="m -20.10457,319.20065 a 3.9761524,3.9761524 0 0 1 -3.971763,3.97615 3.9761524,3.9761524 0 0 1 -3.980533,-3.96737 3.9761524,3.9761524 0 0 1 3.962975,-3.98491 3.9761524,3.9761524 0 0 1 3.989282,3.95858"
       transform="rotate(-30)" />
    <path
       d="m 2.9519788,319.20065 a 3.9761524,3.9761524 0 0 1 -3.971763,3.97615 3.9761524,3.9761524 0 0 1 -3.9805321,-3.96737 3.9761524,3.9761524 0 0 1 3.9629746,-3.98491 3.9761524,3.9761524 0 0 1 3.9892817,3.95858"
       sodipodi:open="true"
       sodipodi:end="6.2787696"
       sodipodi:start="0"
       sodipodi:ry="3.9761524"
       sodipodi:rx="3.9761524"
       sodipodi:cy="319.20065"
       sodipodi:cx="-1.0241736"
       sodipodi:type="arc"
       id="path4704"
       style="fill:#ffffff;fill-opacity:1;stroke:none;stroke-width:2.125;stroke-linecap:round;stroke-miterlimit:4;stroke-dasharray:none;stroke-opacity:0.99215686"
       transform="rotate(-30)" />
    <path
       style="fill:#ffffff;fill-opacity:1;stroke:none;stroke-width:2.125;stroke-linecap:round;stroke-miterlimit:4;stroke-dasharray:none;stroke-opacity:0.99215686"
       id="path4706"
       sodipodi:type="arc"
       sodipodi:cx="8.0472527"
       sodipodi:cy="290.47446"
       sodipodi:rx="3.9761524"
       sodipodi:ry="3.9761524"
       sodipodi:start="0"
       sodipodi:end="6.2787696"
       sodipodi:open="true"
       d="m 12.023405,290.47446 a 3.9761524,3.9761524 0 0 1 -3.971763,3.97615 3.9761524,3.9761524 0 0 1 -3.9805321,-3.96737 3.9761524,3.9761524 0 0 1 3.9629746,-3.98491 3.9761524,3.9761524 0 0 1 3.9892815,3.95857"
       transform="rotate(-30)" />
    <path
       d="m -29.175997,290.47446 a 3.9761524,3.9761524 0 0 1 -3.971763,3.97615 3.9761524,3.9761524 0 0 1 -3.980532,-3.96737 3.9761524,3.9761524 0 0 1 3.962975,-3.98491 3.9761524,3.9761524 0 0 1 3.989281,3.95857"
       sodipodi:open="true"
       sodipodi:end="6.2787696"
       sodipodi:start="0"
       sodipodi:ry="3.9761524"
       sodipodi:rx="3.9761524"
       sodipodi:cy="290.47446"
       sodipodi:cx="-33.152149"
       sodipodi:type="arc"
       id="path4708"
       style="fill:#ffffff;fill-opacity:1;stroke:none;stroke-width:2.125;stroke-linecap:round;stroke-miterlimit:4;stroke-dasharray:none;stroke-opacity:0.99215686"
       transform="rotate(-30)" />
    <path
       transform="rotate(-30)"
       style="fill:none;fill-opacity:1;stroke:#fefefe;stroke-width:0.47585112;stroke-linecap:round;stroke-miterlimit:4;stroke-dasharray:none;stroke-opacity:0.99215686"
       id="path4710"
       sodipodi:type="arc"
       sodipodi:cx="-47.678055"
       sodipodi:cy="278.68317"
       sodipodi:rx="20.848455"
       sodipodi:ry="30.645391"
       sodipodi:start="0"
       sodipodi:end="6.2787749"
       sodipodi:open="true"
       d="m -26.829599,278.68317 a 20.848455,30.645391 0 0 1 -20.825468,30.64537 20.848455,30.645391 0 0 1 -20.871393,-30.57779 20.848455,30.645391 0 0 1 20.779443,-30.71281 20.848455,30.645391 0 0 1 20.917215,30.51007" />
    <path
       transform="rotate(-30)"
       d="m -43.46472,248.04663 a 3.9761524,3.9761524 0 0 1 -3.971763,3.97615 3.9761524,3.9761524 0 0 1 -3.980532,-3.96737 3.9761524,3.9761524 0 0 1 3.962975,-3.98491 3.9761524,3.9761524 0 0 1 3.989281,3.95857"
       sodipodi:open="true"
       sodipodi:end="6.2787696"
       sodipodi:start="0"
       sodipodi:ry="3.9761524"
       sodipodi:rx="3.9761524"
       sodipodi:cy="248.04663"
       sodipodi:cx="-47.440872"
       sodipodi:type="arc"
       id="path4712"
       style="fill:#ffffff;fill-opacity:1;stroke:none;stroke-width:2.125;stroke-linecap:round;stroke-miterlimit:4;stroke-dasharray:none;stroke-opacity:0.99215686" />
    <path
       transform="rotate(-30)"
       style="fill:#ffffff;fill-opacity:1;stroke:none;stroke-width:2.125;stroke-linecap:round;stroke-miterlimit:4;stroke-dasharray:none;stroke-opacity:0.99215686"
       id="path4714"
       sodipodi:type="arc"
       sodipodi:cx="-47.440872"
       sodipodi:cy="309.65674"
       sodipodi:rx="3.9761524"
       sodipodi:ry="3.9761524"
       sodipodi:start="0"
       sodipodi:end="6.2787696"
       sodipodi:open="true"
       d="m -43.46472,309.65674 a 3.9761524,3.9761524 0 0 1 -3.971763,3.97615 3.9761524,3.9761524 0 0 1 -3.980532,-3.96737 3.9761524,3.9761524 0 0 1 3.962975,-3.98491 3.9761524,3.9761524 0 0 1 3.989281,3.95857" />
    <path
       transform="rotate(-30)"
       d="m -55.181974,305.12103 a 3.9761524,3.9761524 0 0 1 -3.971763,3.97615 3.9761524,3.9761524 0 0 1 -3.980533,-3.96737 3.9761524,3.9761524 0 0 1 3.962975,-3.98491 3.9761524,3.9761524 0 0 1 3.989282,3.95858"
       sodipodi:open="true"
       sodipodi:end="6.2787696"
       sodipodi:start="0"
       sodipodi:ry="3.9761524"
       sodipodi:rx="3.9761524"
       sodipodi:cy="305.12103"
       sodipodi:cx="-59.158127"
       sodipodi:type="arc"
       id="path4716"
       style="fill:#ffffff;fill-opacity:1;stroke:none;stroke-width:2.125;stroke-linecap:round;stroke-miterlimit:4;stroke-dasharray:none;stroke-opacity:0.99215686" />
    <path
       transform="rotate(-30)"
       style="fill:#ffffff;fill-opacity:1;stroke:none;stroke-width:2.125;stroke-linecap:round;stroke-miterlimit:4;stroke-dasharray:none;stroke-opacity:0.99215686"
       id="path4718"
       sodipodi:type="arc"
       sodipodi:cx="-36.101578"
       sodipodi:cy="305.12103"
       sodipodi:rx="3.9761524"
       sodipodi:ry="3.9761524"
       sodipodi:start="0"
       sodipodi:end="6.2787696"
       sodipodi:open="true"
       d="m -32.125425,305.12103 a 3.9761524,3.9761524 0 0 1 -3.971763,3.97615 3.9761524,3.9761524 0 0 1 -3.980532,-3.96737 3.9761524,3.9761524 0 0 1 3.962974,-3.98491 3.9761524,3.9761524 0 0 1 3.989282,3.95858" />
    <path
       transform="rotate(-30)"
       d="m -23.053997,276.39484 a 3.9761524,3.9761524 0 0 1 -3.971763,3.97615 3.9761524,3.9761524 0 0 1 -3.980532,-3.96737 3.9761524,3.9761524 0 0 1 3.962974,-3.98491 3.9761524,3.9761524 0 0 1 3.989282,3.95857"
       sodipodi:open="true"
       sodipodi:end="6.2787696"
       sodipodi:start="0"
       sodipodi:ry="3.9761524"
       sodipodi:rx="3.9761524"
       sodipodi:cy="276.39484"
       sodipodi:cx="-27.030149"
       sodipodi:type="arc"
       id="path4720"
       style="fill:#ffffff;fill-opacity:1;stroke:none;stroke-width:2.125;stroke-linecap:round;stroke-miterlimit:4;stroke-dasharray:none;stroke-opacity:0.99215686" />
    <path
       transform="rotate(-30)"
       style="fill:#ffffff;fill-opacity:1;stroke:none;stroke-width:2.125;stroke-linecap:round;stroke-miterlimit:4;stroke-dasharray:none;stroke-opacity:0.99215686"
       id="path4722"
       sodipodi:type="arc"
       sodipodi:cx="-68.229553"
       sodipodi:cy="276.39484"
       sodipodi:rx="3.9761524"
       sodipodi:ry="3.9761524"
       sodipodi:start="0"
       sodipodi:end="6.2787696"
       sodipodi:open="true"
       d="m -64.253401,276.39484 a 3.9761524,3.9761524 0 0 1 -3.971763,3.97615 3.9761524,3.9761524 0 0 1 -3.980532,-3.96737 3.9761524,3.9761524 0 0 1 3.962975,-3.98491 3.9761524,3.9761524 0 0 1 3.989281,3.95857" />
    <path
       d="m -54.051332,257.41159 a 20.848455,30.645391 0 0 1 -20.825468,30.64537 20.848455,30.645391 0 0 1 -20.871393,-30.57779 20.848455,30.645391 0 0 1 20.779443,-30.7128 20.848455,30.645391 0 0 1 20.917215,30.51006"
       sodipodi:open="true"
       sodipodi:end="6.2787749"
       sodipodi:start="0"
       sodipodi:ry="30.645391"
       sodipodi:rx="20.848455"
       sodipodi:cy="257.41159"
       sodipodi:cx="-74.899788"
       sodipodi:type="arc"
       id="path4724"
       style="fill:none;fill-opacity:1;stroke:#fefefe;stroke-width:0.47585112;stroke-linecap:round;stroke-miterlimit:4;stroke-dasharray:none;stroke-opacity:0.99215686"
       transform="rotate(-30)" />
    <path
       style="fill:#ffffff;fill-opacity:1;stroke:none;stroke-width:2.125;stroke-linecap:round;stroke-miterlimit:4;stroke-dasharray:none;stroke-opacity:0.99215686"
       id="path4726"
       sodipodi:type="arc"
       sodipodi:cx="-74.662605"
       sodipodi:cy="226.77507"
       sodipodi:rx="3.9761524"
       sodipodi:ry="3.9761524"
       sodipodi:start="0"
       sodipodi:end="6.2787696"
       sodipodi:open="true"
       d="m -70.686453,226.77507 a 3.9761524,3.9761524 0 0 1 -3.971763,3.97615 3.9761524,3.9761524 0 0 1 -3.980532,-3.96737 3.9761524,3.9761524 0 0 1 3.962975,-3.98491 3.9761524,3.9761524 0 0 1 3.989281,3.95857"
       transform="rotate(-30)" />
    <path
       d="m -70.686453,288.38516 a 3.9761524,3.9761524 0 0 1 -3.971763,3.97615 3.9761524,3.9761524 0 0 1 -3.980532,-3.96737 3.9761524,3.9761524 0 0 1 3.962975,-3.98491 3.9761524,3.9761524 0 0 1 3.989281,3.95857"
       sodipodi:open="true"
       sodipodi:end="6.2787696"
       sodipodi:start="0"
       sodipodi:ry="3.9761524"
       sodipodi:rx="3.9761524"
       sodipodi:cy="288.38516"
       sodipodi:cx="-74.662605"
       sodipodi:type="arc"
       id="path4728"
       style="fill:#ffffff;fill-opacity:1;stroke:none;stroke-width:2.125;stroke-linecap:round;stroke-miterlimit:4;stroke-dasharray:none;stroke-opacity:0.99215686"
       transform="rotate(-30)" />
    <path
       style="fill:#ffffff;fill-opacity:1;stroke:none;stroke-width:2.125;stroke-linecap:round;stroke-miterlimit:4;stroke-dasharray:none;stroke-opacity:0.99215686"
       id="path4730"
       sodipodi:type="arc"
       sodipodi:cx="-86.37986"
       sodipodi:cy="283.84946"
       sodipodi:rx="3.9761524"
       sodipodi:ry="3.9761524"
       sodipodi:start="0"
       sodipodi:end="6.2787696"
       sodipodi:open="true"
       d="m -82.403708,283.84946 a 3.9761524,3.9761524 0 0 1 -3.971763,3.97615 3.9761524,3.9761524 0 0 1 -3.980532,-3.96737 3.9761524,3.9761524 0 0 1 3.962975,-3.98491 3.9761524,3.9761524 0 0 1 3.989282,3.95857"
       transform="rotate(-30)" />
    <path
       d="m -59.347162,283.84946 a 3.9761524,3.9761524 0 0 1 -3.971763,3.97615 3.9761524,3.9761524 0 0 1 -3.980532,-3.96737 3.9761524,3.9761524 0 0 1 3.962974,-3.98491 3.9761524,3.9761524 0 0 1 3.989282,3.95857"
       sodipodi:open="true"
       sodipodi:end="6.2787696"
       sodipodi:start="0"
       sodipodi:ry="3.9761524"
       sodipodi:rx="3.9761524"
       sodipodi:cy="283.84946"
       sodipodi:cx="-63.323315"
       sodipodi:type="arc"
       id="path4732"
       style="fill:#ffffff;fill-opacity:1;stroke:none;stroke-width:2.125;stroke-linecap:round;stroke-miterlimit:4;stroke-dasharray:none;stroke-opacity:0.99215686"
       transform="rotate(-30)" />
    <path
       style="fill:#ffffff;fill-opacity:1;stroke:none;stroke-width:2.125;stroke-linecap:round;stroke-miterlimit:4;stroke-dasharray:none;stroke-opacity:0.99215686"
       id="path4734"
       sodipodi:type="arc"
       sodipodi:cx="-54.251888"
       sodipodi:cy="255.12328"
       sodipodi:rx="3.9761524"
       sodipodi:ry="3.9761524"
       sodipodi:start="0"
       sodipodi:end="6.2787696"
       sodipodi:open="true"
       d="m -50.275736,255.12328 a 3.9761524,3.9761524 0 0 1 -3.971763,3.97615 3.9761524,3.9761524 0 0 1 -3.980532,-3.96738 3.9761524,3.9761524 0 0 1 3.962975,-3.9849 3.9761524,3.9761524 0 0 1 3.989281,3.95857"
       transform="rotate(-30)" />
    <path
       d="m -91.475134,255.12328 a 3.9761524,3.9761524 0 0 1 -3.971763,3.97615 3.9761524,3.9761524 0 0 1 -3.980532,-3.96738 3.9761524,3.9761524 0 0 1 3.962975,-3.9849 3.9761524,3.9761524 0 0 1 3.989281,3.95857"
       sodipodi:open="true"
       sodipodi:end="6.2787696"
       sodipodi:start="0"
       sodipodi:ry="3.9761524"
       sodipodi:rx="3.9761524"
       sodipodi:cy="255.12328"
       sodipodi:cx="-95.451286"
       sodipodi:type="arc"
       id="path4736"
       style="fill:#ffffff;fill-opacity:1;stroke:none;stroke-width:2.125;stroke-linecap:round;stroke-miterlimit:4;stroke-dasharray:none;stroke-opacity:0.99215686"
       transform="rotate(-30)" />
    <path
       transform="rotate(-30)"
       style="fill:none;fill-opacity:1;stroke:#fefefe;stroke-width:0.47585112;stroke-linecap:round;stroke-miterlimit:4;stroke-dasharray:none;stroke-opacity:0.99215686"
       id="path4738"
       sodipodi:type="arc"
       sodipodi:cx="-62.660202"
       sodipodi:cy="129.30418"
       sodipodi:rx="20.848455"
       sodipodi:ry="30.645391"
       sodipodi:start="0"
       sodipodi:end="6.2787749"
       sodipodi:open="true"
       d="m -41.811747,129.30418 a 20.848455,30.645391 0 0 1 -20.825467,30.64538 20.848455,30.645391 0 0 1 -20.871393,-30.5778 20.848455,30.645391 0 0 1 20.779442,-30.7128 20.848455,30.645391 0 0 1 20.917216,30.51007" />
    <path
       transform="rotate(-30)"
       d="m -58.446867,98.667679 a 3.9761524,3.9761524 0 0 1 -3.971763,3.976151 3.9761524,3.9761524 0 0 1 -3.980532,-3.967372 3.9761524,3.9761524 0 0 1 3.962974,-3.98491 3.9761524,3.9761524 0 0 1 3.989282,3.958573"
       sodipodi:open="true"
       sodipodi:end="6.2787696"
       sodipodi:start="0"
       sodipodi:ry="3.9761524"
       sodipodi:rx="3.9761524"
       sodipodi:cy="98.667679"
       sodipodi:cx="-62.423019"
       sodipodi:type="arc"
       id="path4740"
       style="fill:#ffffff;fill-opacity:1;stroke:none;stroke-width:2.125;stroke-linecap:round;stroke-miterlimit:4;stroke-dasharray:none;stroke-opacity:0.99215686" />
    <path
       transform="rotate(-30)"
       style="fill:#ffffff;fill-opacity:1;stroke:none;stroke-width:2.125;stroke-linecap:round;stroke-miterlimit:4;stroke-dasharray:none;stroke-opacity:0.99215686"
       id="path4742"
       sodipodi:type="arc"
       sodipodi:cx="-62.423019"
       sodipodi:cy="160.27776"
       sodipodi:rx="3.9761524"
       sodipodi:ry="3.9761524"
       sodipodi:start="0"
       sodipodi:end="6.2787696"
       sodipodi:open="true"
       d="m -58.446867,160.27776 a 3.9761524,3.9761524 0 0 1 -3.971763,3.97615 3.9761524,3.9761524 0 0 1 -3.980532,-3.96738 3.9761524,3.9761524 0 0 1 3.962974,-3.9849 3.9761524,3.9761524 0 0 1 3.989282,3.95857" />
    <path
       transform="rotate(-30)"
       d="m -70.164114,155.74205 a 3.9761524,3.9761524 0 0 1 -3.971763,3.97615 3.9761524,3.9761524 0 0 1 -3.980532,-3.96737 3.9761524,3.9761524 0 0 1 3.962974,-3.98491 3.9761524,3.9761524 0 0 1 3.989282,3.95857"
       sodipodi:open="true"
       sodipodi:end="6.2787696"
       sodipodi:start="0"
       sodipodi:ry="3.9761524"
       sodipodi:rx="3.9761524"
       sodipodi:cy="155.74205"
       sodipodi:cx="-74.140266"
       sodipodi:type="arc"
       id="path4744"
       style="fill:#ffffff;fill-opacity:1;stroke:none;stroke-width:2.125;stroke-linecap:round;stroke-miterlimit:4;stroke-dasharray:none;stroke-opacity:0.99215686" />
    <path
       transform="rotate(-30)"
       style="fill:#ffffff;fill-opacity:1;stroke:none;stroke-width:2.125;stroke-linecap:round;stroke-miterlimit:4;stroke-dasharray:none;stroke-opacity:0.99215686"
       id="path4746"
       sodipodi:type="arc"
       sodipodi:cx="-51.083729"
       sodipodi:cy="155.74205"
       sodipodi:rx="3.9761524"
       sodipodi:ry="3.9761524"
       sodipodi:start="0"
       sodipodi:end="6.2787696"
       sodipodi:open="true"
       d="m -47.107576,155.74205 a 3.9761524,3.9761524 0 0 1 -3.971763,3.97615 3.9761524,3.9761524 0 0 1 -3.980533,-3.96737 3.9761524,3.9761524 0 0 1 3.962975,-3.98491 3.9761524,3.9761524 0 0 1 3.989282,3.95857" />
    <path
       transform="rotate(-30)"
       d="m -38.03615,127.01588 a 3.9761524,3.9761524 0 0 1 -3.971763,3.97615 3.9761524,3.9761524 0 0 1 -3.980532,-3.96737 3.9761524,3.9761524 0 0 1 3.962974,-3.98491 3.9761524,3.9761524 0 0 1 3.989282,3.95857"
       sodipodi:open="true"
       sodipodi:end="6.2787696"
       sodipodi:start="0"
       sodipodi:ry="3.9761524"
       sodipodi:rx="3.9761524"
       sodipodi:cy="127.01588"
       sodipodi:cx="-42.012302"
       sodipodi:type="arc"
       id="path4748"
       style="fill:#ffffff;fill-opacity:1;stroke:none;stroke-width:2.125;stroke-linecap:round;stroke-miterlimit:4;stroke-dasharray:none;stroke-opacity:0.99215686" />
    <path
       transform="rotate(-30)"
       style="fill:#ffffff;fill-opacity:1;stroke:none;stroke-width:2.125;stroke-linecap:round;stroke-miterlimit:4;stroke-dasharray:none;stroke-opacity:0.99215686"
       id="path4750"
       sodipodi:type="arc"
       sodipodi:cx="-83.2117"
       sodipodi:cy="127.01588"
       sodipodi:rx="3.9761524"
       sodipodi:ry="3.9761524"
       sodipodi:start="0"
       sodipodi:end="6.2787696"
       sodipodi:open="true"
       d="m -79.235548,127.01588 a 3.9761524,3.9761524 0 0 1 -3.971763,3.97615 3.9761524,3.9761524 0 0 1 -3.980532,-3.96737 3.9761524,3.9761524 0 0 1 3.962974,-3.98491 3.9761524,3.9761524 0 0 1 3.989282,3.95857" />
    <path
       d="m 111.41623,217.7704 a 20.848455,30.645391 0 0 1 -20.825471,30.64537 20.848455,30.645391 0 0 1 -20.871392,-30.57779 20.848455,30.645391 0 0 1 20.779442,-30.7128 20.848455,30.645391 0 0 1 20.917211,30.51006"
       sodipodi:open="true"
       sodipodi:end="6.2787749"
       sodipodi:start="0"
       sodipodi:ry="30.645391"
       sodipodi:rx="20.848455"
       sodipodi:cy="217.7704"
       sodipodi:cx="90.567772"
       sodipodi:type="arc"
       id="path4752"
       style="fill:none;fill-opacity:1;stroke:#fefefe;stroke-width:0.47585112;stroke-linecap:round;stroke-miterlimit:4;stroke-dasharray:none;stroke-opacity:0.99215686"
       transform="rotate(-30)" />
    <path
       style="fill:#ffffff;fill-opacity:1;stroke:none;stroke-width:2.125;stroke-linecap:round;stroke-miterlimit:4;stroke-dasharray:none;stroke-opacity:0.99215686"
       id="path4754"
       sodipodi:type="arc"
       sodipodi:cx="90.804955"
       sodipodi:cy="187.1339"
       sodipodi:rx="3.9761524"
       sodipodi:ry="3.9761524"
       sodipodi:start="0"
       sodipodi:end="6.2787696"
       sodipodi:open="true"
       d="m 94.781107,187.1339 a 3.9761524,3.9761524 0 0 1 -3.971763,3.97615 3.9761524,3.9761524 0 0 1 -3.980532,-3.96738 3.9761524,3.9761524 0 0 1 3.962974,-3.9849 3.9761524,3.9761524 0 0 1 3.989282,3.95857"
       transform="rotate(-30)" />
    <path
       d="m 94.781107,248.74397 a 3.9761524,3.9761524 0 0 1 -3.971763,3.97615 3.9761524,3.9761524 0 0 1 -3.980532,-3.96737 3.9761524,3.9761524 0 0 1 3.962974,-3.98491 3.9761524,3.9761524 0 0 1 3.989282,3.95858"
       sodipodi:open="true"
       sodipodi:end="6.2787696"
       sodipodi:start="0"
       sodipodi:ry="3.9761524"
       sodipodi:rx="3.9761524"
       sodipodi:cy="248.74397"
       sodipodi:cx="90.804955"
       sodipodi:type="arc"
       id="path4756"
       style="fill:#ffffff;fill-opacity:1;stroke:none;stroke-width:2.125;stroke-linecap:round;stroke-miterlimit:4;stroke-dasharray:none;stroke-opacity:0.99215686"
       transform="rotate(-30)" />
    <path
       style="fill:#ffffff;fill-opacity:1;stroke:none;stroke-width:2.125;stroke-linecap:round;stroke-miterlimit:4;stroke-dasharray:none;stroke-opacity:0.99215686"
       id="path4758"
       sodipodi:type="arc"
       sodipodi:cx="79.087708"
       sodipodi:cy="244.20827"
       sodipodi:rx="3.9761524"
       sodipodi:ry="3.9761524"
       sodipodi:start="0"
       sodipodi:end="6.2787696"
       sodipodi:open="true"
       d="m 83.06386,244.20827 a 3.9761524,3.9761524 0 0 1 -3.971763,3.97615 3.9761524,3.9761524 0 0 1 -3.980532,-3.96737 3.9761524,3.9761524 0 0 1 3.962974,-3.98491 3.9761524,3.9761524 0 0 1 3.989282,3.95857"
       transform="rotate(-30)" />
    <path
       d="m 106.1204,244.20827 a 3.9761524,3.9761524 0 0 1 -3.97176,3.97615 3.9761524,3.9761524 0 0 1 -3.980534,-3.96737 3.9761524,3.9761524 0 0 1 3.962974,-3.98491 3.9761524,3.9761524 0 0 1 3.98928,3.95857"
       sodipodi:open="true"
       sodipodi:end="6.2787696"
       sodipodi:start="0"
       sodipodi:ry="3.9761524"
       sodipodi:rx="3.9761524"
       sodipodi:cy="244.20827"
       sodipodi:cx="102.14425"
       sodipodi:type="arc"
       id="path4760"
       style="fill:#ffffff;fill-opacity:1;stroke:none;stroke-width:2.125;stroke-linecap:round;stroke-miterlimit:4;stroke-dasharray:none;stroke-opacity:0.99215686"
       transform="rotate(-30)" />
    <path
       style="fill:#ffffff;fill-opacity:1;stroke:none;stroke-width:2.125;stroke-linecap:round;stroke-miterlimit:4;stroke-dasharray:none;stroke-opacity:0.99215686"
       id="path4762"
       sodipodi:type="arc"
       sodipodi:cx="111.21568"
       sodipodi:cy="215.48209"
       sodipodi:rx="3.9761524"
       sodipodi:ry="3.9761524"
       sodipodi:start="0"
       sodipodi:end="6.2787696"
       sodipodi:open="true"
       d="m 115.19184,215.48209 a 3.9761524,3.9761524 0 0 1 -3.97177,3.97615 3.9761524,3.9761524 0 0 1 -3.98053,-3.96738 3.9761524,3.9761524 0 0 1 3.96297,-3.9849 3.9761524,3.9761524 0 0 1 3.98929,3.95857"
       transform="rotate(-30)" />
    <path
       d="m 73.992426,215.48209 a 3.9761524,3.9761524 0 0 1 -3.971763,3.97615 3.9761524,3.9761524 0 0 1 -3.980532,-3.96738 3.9761524,3.9761524 0 0 1 3.962974,-3.9849 3.9761524,3.9761524 0 0 1 3.989282,3.95857"
       sodipodi:open="true"
       sodipodi:end="6.2787696"
       sodipodi:start="0"
       sodipodi:ry="3.9761524"
       sodipodi:rx="3.9761524"
       sodipodi:cy="215.48209"
       sodipodi:cx="70.016273"
       sodipodi:type="arc"
       id="path4764"
       style="fill:#ffffff;fill-opacity:1;stroke:none;stroke-width:2.125;stroke-linecap:round;stroke-miterlimit:4;stroke-dasharray:none;stroke-opacity:0.99215686"
       transform="rotate(-30)" />
    <path
       transform="rotate(-30)"
       style="fill:none;fill-opacity:1;stroke:#fefefe;stroke-width:0.47585112;stroke-linecap:round;stroke-miterlimit:4;stroke-dasharray:none;stroke-opacity:0.99215686"
       id="path4766"
       sodipodi:type="arc"
       sodipodi:cx="82.124138"
       sodipodi:cy="59.204563"
       sodipodi:rx="20.848455"
       sodipodi:ry="30.645391"
       sodipodi:start="0"
       sodipodi:end="6.2787749"
       sodipodi:open="true"
       d="M 102.97259,59.204563 A 20.848455,30.645391 0 0 1 82.147125,89.849936 20.848455,30.645391 0 0 1 61.275733,59.272142 20.848455,30.645391 0 0 1 82.055175,28.559339 20.848455,30.645391 0 0 1 102.97239,59.069405" />
    <path
       transform="rotate(-30)"
       d="m 86.337473,28.56806 a 3.9761524,3.9761524 0 0 1 -3.971763,3.97615 3.9761524,3.9761524 0 0 1 -3.980532,-3.967371 3.9761524,3.9761524 0 0 1 3.962974,-3.98491 3.9761524,3.9761524 0 0 1 3.989282,3.958573"
       sodipodi:open="true"
       sodipodi:end="6.2787696"
       sodipodi:start="0"
       sodipodi:ry="3.9761524"
       sodipodi:rx="3.9761524"
       sodipodi:cy="28.56806"
       sodipodi:cx="82.36132"
       sodipodi:type="arc"
       id="path4768"
       style="fill:#ffffff;fill-opacity:1;stroke:none;stroke-width:2.125;stroke-linecap:round;stroke-miterlimit:4;stroke-dasharray:none;stroke-opacity:0.99215686" />
    <path
       transform="rotate(-30)"
       style="fill:#ffffff;fill-opacity:1;stroke:none;stroke-width:2.125;stroke-linecap:round;stroke-miterlimit:4;stroke-dasharray:none;stroke-opacity:0.99215686"
       id="path4770"
       sodipodi:type="arc"
       sodipodi:cx="82.36132"
       sodipodi:cy="90.178139"
       sodipodi:rx="3.9761524"
       sodipodi:ry="3.9761524"
       sodipodi:start="0"
       sodipodi:end="6.2787696"
       sodipodi:open="true"
       d="m 86.337473,90.178139 a 3.9761524,3.9761524 0 0 1 -3.971763,3.97615 3.9761524,3.9761524 0 0 1 -3.980532,-3.967372 3.9761524,3.9761524 0 0 1 3.962974,-3.984909 3.9761524,3.9761524 0 0 1 3.989282,3.958573" />
    <path
       transform="rotate(-30)"
       d="m 74.620218,85.642433 a 3.9761524,3.9761524 0 0 1 -3.971763,3.97615 3.9761524,3.9761524 0 0 1 -3.980532,-3.967371 3.9761524,3.9761524 0 0 1 3.962975,-3.984909 3.9761524,3.9761524 0 0 1 3.989282,3.958573"
       sodipodi:open="true"
       sodipodi:end="6.2787696"
       sodipodi:start="0"
       sodipodi:ry="3.9761524"
       sodipodi:rx="3.9761524"
       sodipodi:cy="85.642433"
       sodipodi:cx="70.644066"
       sodipodi:type="arc"
       id="path4772"
       style="fill:#ffffff;fill-opacity:1;stroke:none;stroke-width:2.125;stroke-linecap:round;stroke-miterlimit:4;stroke-dasharray:none;stroke-opacity:0.99215686" />
    <path
       transform="rotate(-30)"
       style="fill:#ffffff;fill-opacity:1;stroke:none;stroke-width:2.125;stroke-linecap:round;stroke-miterlimit:4;stroke-dasharray:none;stroke-opacity:0.99215686"
       id="path4774"
       sodipodi:type="arc"
       sodipodi:cx="93.700615"
       sodipodi:cy="85.642433"
       sodipodi:rx="3.9761524"
       sodipodi:ry="3.9761524"
       sodipodi:start="0"
       sodipodi:end="6.2787696"
       sodipodi:open="true"
       d="m 97.676767,85.642433 a 3.9761524,3.9761524 0 0 1 -3.971763,3.97615 3.9761524,3.9761524 0 0 1 -3.980532,-3.967371 3.9761524,3.9761524 0 0 1 3.962975,-3.984909 3.9761524,3.9761524 0 0 1 3.989282,3.958573" />
    <path
       transform="rotate(-30)"
       d="m 106.74819,56.916248 a 3.9761524,3.9761524 0 0 1 -3.97176,3.97615 3.9761524,3.9761524 0 0 1 -3.980531,-3.967371 3.9761524,3.9761524 0 0 1 3.962971,-3.984909 3.9761524,3.9761524 0 0 1 3.98928,3.958573"
       sodipodi:open="true"
       sodipodi:end="6.2787696"
       sodipodi:start="0"
       sodipodi:ry="3.9761524"
       sodipodi:rx="3.9761524"
       sodipodi:cy="56.916248"
       sodipodi:cx="102.77204"
       sodipodi:type="arc"
       id="path4776"
       style="fill:#ffffff;fill-opacity:1;stroke:none;stroke-width:2.125;stroke-linecap:round;stroke-miterlimit:4;stroke-dasharray:none;stroke-opacity:0.99215686" />
    <path
       transform="rotate(-30)"
       style="fill:#ffffff;fill-opacity:1;stroke:none;stroke-width:2.125;stroke-linecap:round;stroke-miterlimit:4;stroke-dasharray:none;stroke-opacity:0.99215686"
       id="path4778"
       sodipodi:type="arc"
       sodipodi:cx="61.572639"
       sodipodi:cy="56.916248"
       sodipodi:rx="3.9761524"
       sodipodi:ry="3.9761524"
       sodipodi:start="0"
       sodipodi:end="6.2787696"
       sodipodi:open="true"
       d="m 65.548792,56.916248 a 3.9761524,3.9761524 0 0 1 -3.971763,3.97615 3.9761524,3.9761524 0 0 1 -3.980532,-3.967371 3.9761524,3.9761524 0 0 1 3.962974,-3.984909 3.9761524,3.9761524 0 0 1 3.989282,3.958573" />
  </g>
</svg>
