<?xml version="1.0" encoding="UTF-8" standalone="no"?>
<!-- Created with Inkscape (http://www.inkscape.org/) -->

<svg
   xmlns:dc="http://purl.org/dc/elements/1.1/"
   xmlns:cc="http://creativecommons.org/ns#"
   xmlns:rdf="http://www.w3.org/1999/02/22-rdf-syntax-ns#"
   xmlns:svg="http://www.w3.org/2000/svg"
   xmlns="http://www.w3.org/2000/svg"
   xmlns:sodipodi="http://sodipodi.sourceforge.net/DTD/sodipodi-0.dtd"
   xmlns:inkscape="http://www.inkscape.org/namespaces/inkscape"
   width="210mm"
   height="297mm"
   viewBox="0 0 210 297"
   version="1.1"
   id="svg8"
   inkscape:version="0.92.3 (2405546, 2018-03-11)"
   sodipodi:docname="orbit-samples.svg">
  <defs
     id="defs2" />
  <sodipodi:namedview
     id="base"
     pagecolor="#ffffff"
     bordercolor="#666666"
     borderopacity="1.0"
     inkscape:pageopacity="0.0"
     inkscape:pageshadow="2"
     inkscape:zoom="0.49497475"
     inkscape:cx="268.00578"
     inkscape:cy="535.6309"
     inkscape:document-units="mm"
     inkscape:current-layer="layer1"
     showgrid="false"
     inkscape:window-width="1099"
     inkscape:window-height="1025"
     inkscape:window-x="1461"
     inkscape:window-y="27"
     inkscape:window-maximized="0" />
  <metadata
     id="metadata5">
    <rdf:RDF>
      <cc:Work
         rdf:about="">
        <dc:format>image/svg+xml</dc:format>
        <dc:type
           rdf:resource="http://purl.org/dc/dcmitype/StillImage" />
        <dc:title></dc:title>
      </cc:Work>
    </rdf:RDF>
  </metadata>
  <g
     inkscape:label="Layer 1"
     inkscape:groupmode="layer"
     id="layer1">
    <path
       style="fill:none;fill-opacity:1;stroke:#000000;stroke-width:2.02566361;stroke-linecap:round;stroke-miterlimit:4;stroke-dasharray:none;stroke-opacity:0.99215686"
       id="path819"
       sodipodi:type="arc"
       sodipodi:cx="105.65031"
       sodipodi:cy="152.16499"
       sodipodi:rx="88.765099"
       sodipodi:ry="130.47687"
       sodipodi:start="0"
       sodipodi:end="6.2787749"
       sodipodi:open="true"
       d="M 194.41541,152.16499 A 88.765099,130.47687 0 0 1 105.74818,282.64178 88.765099,130.47687 0 0 1 16.885424,152.45272 88.765099,130.47687 0 0 1 105.35669,21.688839 88.765099,130.47687 0 0 1 194.41454,151.58954" />
    <path
       style="fill:#000000;fill-opacity:1;stroke:#000000;stroke-width:2.12527704;stroke-linecap:round;stroke-miterlimit:4;stroke-dasharray:none;stroke-opacity:0.99215686"
       id="path825"
       sodipodi:type="arc"
       sodipodi:cx="108.53353"
       sodipodi:cy="69.278107"
       sodipodi:rx="3.9761524"
       sodipodi:ry="3.9761524"
       sodipodi:start="0"
       sodipodi:end="6.2787696"
       sodipodi:open="true"
       d="m 112.50968,69.278107 a 3.9761524,3.9761524 0 0 1 -3.97176,3.97615 3.9761524,3.9761524 0 0 1 -3.98053,-3.967372 3.9761524,3.9761524 0 0 1 3.96297,-3.984909 3.9761524,3.9761524 0 0 1 3.98928,3.958573" />
    <path
       d="m 21.638044,153.20074 a 3.9761524,3.9761524 0 0 1 -3.971763,3.97615 3.9761524,3.9761524 0 0 1 -3.980532,-3.96737 3.9761524,3.9761524 0 0 1 3.962975,-3.98491 3.9761524,3.9761524 0 0 1 3.989282,3.95858"
       sodipodi:open="true"
       sodipodi:end="6.2787696"
       sodipodi:start="0"
       sodipodi:ry="3.9761524"
       sodipodi:rx="3.9761524"
       sodipodi:cy="153.20074"
       sodipodi:cx="17.661892"
       sodipodi:type="arc"
       id="path827"
       style="fill:#000000;fill-opacity:1;stroke:#000000;stroke-width:2.12527704;stroke-linecap:round;stroke-miterlimit:4;stroke-dasharray:none;stroke-opacity:0.99215686" />
    <path
       d="m 111.97515,282.5592 a 3.9761524,3.9761524 0 0 1 -3.97177,3.97615 3.9761524,3.9761524 0 0 1 -3.98053,-3.96737 3.9761524,3.9761524 0 0 1 3.96297,-3.98491 3.9761524,3.9761524 0 0 1 3.98929,3.95858"
       sodipodi:open="true"
       sodipodi:end="6.2787696"
       sodipodi:start="0"
       sodipodi:ry="3.9761524"
       sodipodi:rx="3.9761524"
       sodipodi:cy="282.5592"
       sodipodi:cx="107.99899"
       sodipodi:type="arc"
       id="path831"
       style="fill:#000000;fill-opacity:1;stroke:#000000;stroke-width:2.12527704;stroke-linecap:round;stroke-miterlimit:4;stroke-dasharray:none;stroke-opacity:0.99215686" />
    <path
       style="fill:#000000;fill-opacity:1;stroke:#000000;stroke-width:2.12527704;stroke-linecap:round;stroke-miterlimit:4;stroke-dasharray:none;stroke-opacity:0.99215686"
       id="path833"
       sodipodi:type="arc"
       sodipodi:cx="70.046722"
       sodipodi:cy="271.86841"
       sodipodi:rx="3.9761524"
       sodipodi:ry="3.9761524"
       sodipodi:start="0"
       sodipodi:end="6.2787696"
       sodipodi:open="true"
       d="m 74.022875,271.86841 a 3.9761524,3.9761524 0 0 1 -3.971763,3.97615 3.9761524,3.9761524 0 0 1 -3.980532,-3.96737 3.9761524,3.9761524 0 0 1 3.962974,-3.98491 3.9761524,3.9761524 0 0 1 3.989282,3.95857" />
    <path
       d="m 146.18564,271.86841 a 3.9761524,3.9761524 0 0 1 -3.97176,3.97615 3.9761524,3.9761524 0 0 1 -3.98053,-3.96737 3.9761524,3.9761524 0 0 1 3.96297,-3.98491 3.9761524,3.9761524 0 0 1 3.98928,3.95857"
       sodipodi:open="true"
       sodipodi:end="6.2787696"
       sodipodi:start="0"
       sodipodi:ry="3.9761524"
       sodipodi:rx="3.9761524"
       sodipodi:cy="271.86841"
       sodipodi:cx="142.20949"
       sodipodi:type="arc"
       id="path835"
       style="fill:#000000;fill-opacity:1;stroke:#000000;stroke-width:2.12527704;stroke-linecap:round;stroke-miterlimit:4;stroke-dasharray:none;stroke-opacity:0.99215686" />
    <path
       style="fill:#000000;fill-opacity:1;stroke:#000000;stroke-width:2.12527704;stroke-linecap:round;stroke-miterlimit:4;stroke-dasharray:none;stroke-opacity:0.99215686"
       id="path837"
       sodipodi:type="arc"
       sodipodi:cx="107.99899"
       sodipodi:cy="22.23867"
       sodipodi:rx="3.9761524"
       sodipodi:ry="3.9761524"
       sodipodi:start="0"
       sodipodi:end="6.2787696"
       sodipodi:open="true"
       d="m 111.97515,22.23867 a 3.9761524,3.9761524 0 0 1 -3.97177,3.97615 3.9761524,3.9761524 0 0 1 -3.98053,-3.967371 3.9761524,3.9761524 0 0 1 3.96297,-3.984909 3.9761524,3.9761524 0 0 1 3.98929,3.958573" />
    <path
       style="fill:#000000;fill-opacity:1;stroke:#000000;stroke-width:2.12527704;stroke-linecap:round;stroke-miterlimit:4;stroke-dasharray:none;stroke-opacity:0.99215686"
       id="path839"
       sodipodi:type="arc"
       sodipodi:cx="194.59431"
       sodipodi:cy="153.20074"
       sodipodi:rx="3.9761524"
       sodipodi:ry="3.9761524"
       sodipodi:start="0"
       sodipodi:end="6.2787696"
       sodipodi:open="true"
       d="m 198.57047,153.20074 a 3.9761524,3.9761524 0 0 1 -3.97177,3.97615 3.9761524,3.9761524 0 0 1 -3.98053,-3.96737 3.9761524,3.9761524 0 0 1 3.96298,-3.98491 3.9761524,3.9761524 0 0 1 3.98928,3.95858" />
  </g>
</svg>
